<?xml version="1.0" standalone="no"?>
<!DOCTYPE svg PUBLIC "-//W3C//DTD SVG 1.1//EN" "http://www.w3.org/Graphics/SVG/1.1/DTD/svg11.dtd" >
<svg xmlns="http://www.w3.org/2000/svg">
<metadata>Generated by IcoMoon</metadata>
<defs>
<font id="icomoon" horiz-adv-x="1024">
<font-face units-per-em="1024" ascent="960" descent="-64" />
<missing-glyph horiz-adv-x="1024" />
<glyph unicode="&#x20;" d="" horiz-adv-x="512" />
<glyph unicode="&#xe000;" d="M512-64c-282.314 0-512 229.686-512 512s229.686 512 512 512 512-229.686 512-512c0-282.314-229.686-512-512-512zM512 885.408c-241.184 0-437.408-196.224-437.408-437.408s196.224-437.408 437.398-437.408 437.398 196.224 437.398 437.408-196.204 437.408-437.388 437.408zM470.538 466.272l-88.758 78.826c-10.87 9.642-27.286 9.6-38.112-0.096l-87.744-78.634c-12.054-10.816-18.998-26.358-18.998-42.57v-125.366c0-14.102 11.434-25.526 25.536-25.526h64.278v103.85h74.666v-103.85h62.678c14.102 0 25.536 11.424 25.536 25.526l0.002 125.366c0.010 16.202-6.988 31.722-19.084 42.474zM761.28 608.106h-218.986c-14.25 0-25.792-11.542-25.792-25.782v-283.646c0-14.24 11.542-25.782 25.792-25.782h72.15v103.85h74.666v-103.85h72.17c14.24 0 25.782 11.542 25.782 25.782v283.636c0.010 14.252-11.532 25.792-25.782 25.792z" />
<glyph unicode="&#xe001;" d="M512.010-63.99c-282.324 0-512.010 229.664-512.010 512 0 282.316 229.686 511.99 512.010 511.99 282.314 0 511.99-229.674 511.99-511.99 0-282.336-229.674-512-511.99-512zM512.010 885.408c-241.184 0-437.418-196.224-437.418-437.398s196.234-437.408 437.418-437.408c241.184 0 437.398 196.224 437.398 437.408s-196.214 437.398-437.398 437.398zM492.758 629.792h-2.656c-8.896-0.010-16.266-6.986-16.778-15.882v-0.17c-0.032-0.256-0.042-0.512-0.042-0.778v-103.232c0-3.254-1.994-5.888-4.426-5.888-2.442 0-4.426 2.646-4.416 5.888l0.032 158.858c-0.022 9.27-7.562 16.8-16.822 16.822l-2.656-0.010c-8.928 0-16.288-6.998-16.778-15.936v-153.27c0-3.264-1.994-5.888-4.438-5.888-2.442 0-4.438 2.634-4.426 5.888l0.008 161.256c-0.010 9.258-7.552 16.8-16.822 16.81h-2.656c-9.248-0.010-16.8-7.552-16.81-16.81v-155.936c0-3.254-2.048-5.878-4.576-5.878-2.506 0-4.576 2.634-4.576 5.888v115.298c0 9.27-7.542 16.8-16.8 16.81h-2.666c-9.248-0.010-16.778-7.542-16.81-16.81v-184.768c0-3.254-2.112-4.79-4.63-3.232-1.75 1.088-3.53 2.272-4.362 3.072l-0.064 0.042c-1.514 1.45-2.806 2.998-3.808 4.65-2.678 4.298-3.968 9.43-3.968 15.722 0.032 7.776 1.888 15.818 3.69 23.606l0.362 1.558c2.016 8.64 3.84 16.97 3.84 24.106 0 4.224-0.618 7.766-1.856 10.848-1.408 3.434-3.466 6.154-6.454 8.586-3.466 2.826-8.48 4.694-12.48 4.618-2.048 0-3.882-0.416-5.472-1.258-1.686-0.906-2.89-2.134-3.872-3.84-1.258-2.016-1.888-4.906-2.698-8.554-0.438-2.026-0.938-4.33-1.568-6.56-1.494-4.79-3.328-9.28-5.098-13.632-1.056-2.592-2.038-5.056-2.944-7.51-1.344-3.594-3.072-6.87-4.714-10.048-0.79-1.514-1.558-2.998-2.25-4.416-2.614-5.312-3.808-9.43-3.808-13.098 0-1.6 0.224-3.094 0.65-4.608 1.344-4.758 2.922-9.43 4.598-14.368 1.738-5.184 3.542-10.538 5.088-16.010 0.854-3.114 1.632-6.25 2.422-9.354 2.442-9.61 4.726-18.71 8.586-26.442 4.458-9.322 13.878-19.616 23.338-29.088 2.24-2.262 4.576-4.598 6.774-6.89 5.184-5.514 9.302-12.010 12.598-19.84 2.016-4.8 3.242-8.438 4.79-15.126 6.304-27.232 7.968-117.27 7.968-117.27h131.286c0 0-2.518 131.072 6.442 141.162 1.494 4.502 4.192 7.862 6.378 11.638l1.014 1.76c5.408 9.098 12.362 30.144 12.362 49.376l0.008 191.316c-0.042 9.26-7.766 16.812-17.034 16.822zM734.272 406.24c-0.512 1.046-1.066 2.122-1.642 3.254-1.216 2.336-2.474 4.746-3.466 7.36-0.662 1.834-1.398 3.626-2.166 5.536-1.302 3.19-2.646 6.486-3.744 9.994-0.47 1.632-0.832 3.328-1.162 4.822-0.576 2.688-1.046 4.822-1.974 6.282-0.726 1.258-1.6 2.144-2.858 2.816-1.162 0.618-2.506 0.928-4.022 0.928-2.934 0.042-6.624-1.322-9.152-3.392-2.218-1.782-3.734-3.798-4.746-6.304-0.928-2.272-1.366-4.874-1.366-7.968 0-5.238 1.344-11.36 2.826-17.706l0.266-1.142c1.312-5.706 2.688-11.626 2.71-17.334 0-4.618-0.96-8.384-2.912-11.53-0.746-1.206-1.686-2.358-2.816-3.414l-0.042-0.032c-0.608-0.598-1.92-1.462-3.2-2.262-1.834-1.13-3.402-0.010-3.402 2.378l0.030 135.704c-0.010 6.806-5.546 12.352-12.352 12.362h-1.952c-6.816-0.010-12.342-5.546-12.362-12.362v-84.704c0.010-2.39-1.494-4.33-3.338-4.33-1.866 0-3.36 1.952-3.36 4.33l0.010 114.538c-0.010 6.806-5.546 12.352-12.342 12.352h-1.962c-6.806 0-12.342-5.546-12.352-12.352v-118.432c0-2.4-1.482-4.33-3.274-4.33s-3.242 1.942-3.242 4.33l0.010 112.512v0.074c-0.362 6.55-5.782 11.69-12.32 11.702h-1.952c-6.816-0.010-12.374-5.546-12.384-12.362l0.032-116.682c0.010-2.39-1.45-4.32-3.254-4.32-1.792 0-3.264 1.942-3.264 4.32v75.83c0 0.192-0.010 0.374-0.032 0.566v0.128c-0.362 6.518-5.782 11.648-12.31 11.658h-1.974c-6.794-0.010-12.48-5.546-12.48-12.362v-140.554c0-14.122 5.12-29.568 9.088-36.266l0.736-1.28c1.61-2.784 3.594-5.258 4.694-8.566 6.56-7.402 4.736-92.352 4.736-92.352h96.426c0 0 1.226 54.816 5.856 74.816 1.12 4.906 2.026 7.574 3.52 11.104 2.422 5.75 5.43 10.518 9.248 14.582 1.61 1.696 3.328 3.402 4.982 5.078 6.944 6.944 13.878 14.518 17.12 21.366 2.858 5.664 4.534 12.352 6.304 19.414 0.576 2.282 1.162 4.598 1.782 6.88 1.13 4.032 2.454 7.958 3.754 11.766 1.216 3.638 2.368 7.050 3.35 10.56 0.32 1.11 0.48 2.208 0.48 3.37 0.022 2.692-0.874 5.722-2.784 9.626z" />
<glyph unicode="&#xe002;" d="M512.022-63.99c-282.336 0-512.022 229.676-512.022 512.012 0 282.314 229.686 511.978 512.022 511.978 282.304 0 511.978-229.664 511.978-511.978 0-282.336-229.674-512.012-511.978-512.012zM512.022 885.408c-241.196 0-437.43-196.214-437.43-437.386 0-241.194 196.234-437.418 437.43-437.418 241.174 0 437.386 196.234 437.386 437.418 0 241.172-196.214 437.386-437.386 437.386zM538.848 568.17c-7.882 32.714-2.858 67.68 30.058 84.352-7.062 1.216-12.512 12.426-9.206 18.016-39.35-20.138-49.674-60.384-41.802-100.928 6.838-1.172 13.91-1.792 20.95-1.44zM523.178 568.074c-26.198 111.99-105.994 93.184-203.264 76.448 130.134-105.994 135.468-51.008 203.264-76.448zM568.214 542.090c-27.562-9.782-55.318-8.224-83.338 0-139.338 40.768-175.498-56.576-117.194-165.206 17.194-32.042 23.222-49.014 25.29-82.080 3.286-51.498 40.426-77.802 103.798-66.528 15.99 2.858 32.266 1.696 49.408-1.782 62.496-12.566 104.31 10.966 115.766 77.398 4.694 27.21 8.672 37.174 25.398 62.102 70.61 105.526-1.56 217.952-119.128 176.096z" />
<glyph unicode="&#xe003;" d="M512.010-63.99c-282.324 0-512.010 229.676-512.010 512 0 282.316 229.686 511.99 512.010 511.99 282.314 0 511.99-229.674 511.99-511.99 0-282.324-229.674-512-511.99-512zM512.010 885.408c-241.194 0-437.418-196.224-437.418-437.398s196.224-437.408 437.418-437.408c241.184 0 437.398 196.224 437.398 437.408s-196.214 437.398-437.398 437.398zM520.522 610.784c-20.438 19.584-137.878 87.638-298.55 18.294 0-1.046 0-20.256 0-49.536v-330.806h243.424c8.352-7.168 28.214-12.246 51.466-12.246 23.21 0 43.114 5.078 51.498 12.246h244.854l0.012 330.794c0 29.29 0 48.502 0 49.536-154.058 68.032-277.14-3.924-292.704-18.282zM498.698 272.406c0 13.034-114.282 89.238-246.24 6.090v322.528c26.144 15.030 61.29 24.224 100.096 24.224 80.746 0 146.154-26.55 146.154-75.786l0.002-277.056zM784.618 278.496c-131.958 83.136-246.176 6.934-246.176-6.090l0.012 277.034c0 49.248 65.418 75.798 146.070 75.798 38.806 0 73.952-9.194 100.106-24.214l-0.012-322.528zM807.722 263.37l-9.77 352.534-103.008 25.76-80.8-10.656-62.166-17.76-34.39-24.864-107.702 53.28h-102.996l-54.176-15.99-11.542-13.322-6.208-348.982h572.758zM477.386 315.594c-27.35 13.27-64.192 22.506-99.254 22.506-35.574 0-70.528-7.958-104.362-23.712v273.666c22.378 10.294 49.866 15.882 78.784 15.882 72.342 0 124.842-22.912 124.842-54.474l0.002-233.868zM559.766 315.594v233.846c0 31.562 52.47 54.486 124.758 54.486 28.906 0 56.406-5.578 78.794-15.882v-273.654c-33.824 15.754-68.79 23.712-104.33 23.712-35.052 0-71.874-9.238-99.222-22.508z" />
<glyph unicode="&#xe004;" d="M512-64c-282.314 0-512 229.686-512 512s229.686 512 512 512 512-229.686 512-512c0-282.314-229.686-512-512-512zM512 885.408c-241.184 0-437.408-196.224-437.408-437.408s196.224-437.408 437.398-437.408 437.408 196.224 437.408 437.408-196.214 437.408-437.398 437.408zM497.526 460.352h-30.602l-59.062-59.062-59.062 59.062h-33.686c-43.52 0-78.794-35.286-78.794-78.794v-78.774h339.978v78.774c0.022 43.52-35.252 78.794-78.772 78.794zM321.696 552.586c-0.001-0.122-0.001-0.267-0.001-0.411 0-46.74 37.89-84.63 84.63-84.63 46.306 0 83.926 37.19 84.62 83.33 0.009 1.833 0.010 1.978 0.010 2.122 0 46.74-37.89 84.63-84.63 84.63-46.306 0-83.926-37.19-84.62-83.33zM735.36 407.402h-20.31l-39.2-39.2-39.21 39.2h-22.368c-28.874 0-52.298-23.414-52.298-52.31v-52.288h225.706v52.288c-0.010 28.898-23.434 52.31-52.32 52.31zM618.624 468.64c-0.003-0.223-0.005-0.486-0.005-0.75 0-31.034 25.158-56.192 56.192-56.192 30.243 0 54.906 23.892 56.143 53.832 0.047 3.333 0.049 3.596 0.049 3.859 0 31.034-25.158 56.192-56.192 56.192-30.243 0-54.906-23.892-56.143-53.832z" />
<glyph unicode="&#xe005;" d="M512 960c-282.752 0-512-229.206-512-512s229.248-512 512-512 512 229.206 512 512-229.248 512-512 512zM816.384 402.816l-277.888-277.93c-12.118-12.118-27.99-18.176-43.904-18.176s-31.786 6.058-43.904 18.176c-24.234 24.234-24.234 63.488 0 87.766l163.626 163.626h-357.162c-37.846 0-68.522 30.678-68.522 68.522s30.72 68.522 68.522 68.522h361.002l-167.424 167.424c-24.234 24.234-24.234 63.488 0 87.766s63.488 24.234 87.766 0l277.888-277.93c24.234-24.236 24.234-63.532 0-87.766z" />
<glyph unicode="&#xe006;" d="M939.008 381.952l-418.496-418.56c-18.24-18.24-42.176-27.328-66.112-27.328s-47.872 9.088-66.112 27.328c-36.48 36.48-36.48 95.616 0 132.16l246.464 246.4h-537.92c-56.96 0-103.168 46.144-103.168 103.168s46.208 103.168 103.168 103.168h543.616l-252.16 252.16c-36.48 36.48-36.48 95.616 0 132.16s95.616 36.48 132.16 0l418.496-418.56c36.544-36.48 36.544-95.552 0.064-132.096z" horiz-adv-x="960" />
<glyph unicode="&#xe007;" d="M1024 765.582c-37.676-16.708-78.164-28.002-120.66-33.080 43.372 26 76.686 67.17 92.372 116.23-40.596-24.078-85.556-41.56-133.41-50.98-38.32 40.83-92.922 66.34-153.346 66.34-116.022 0-210.088-94.058-210.088-210.078 0-16.466 1.858-32.5 5.44-47.878-174.6 8.764-329.402 92.4-433.018 219.506-18.084-31.028-28.446-67.116-28.446-105.618 0-72.888 37.088-137.192 93.46-174.866-34.438 1.092-66.832 10.542-95.154 26.278-0.020-0.876-0.020-1.756-0.020-2.642 0-101.788 72.418-186.696 168.522-206-17.626-4.8-36.188-7.372-55.348-7.372-13.538 0-26.698 1.32-39.528 3.772 26.736-83.46 104.32-144.206 196.252-145.896-71.9-56.35-162.486-89.934-260.916-89.934-16.958 0-33.68 0.994-50.116 2.94 92.972-59.61 203.402-94.394 322.042-94.394 386.422 0 597.736 320.124 597.736 597.744 0 9.108-0.206 18.168-0.61 27.18 41.056 29.62 76.672 66.62 104.836 108.748z" />
<glyph unicode="&#xe008;" d="M1111.812 84.552v-4.868c0-31.534 25.564-57.094 57.094-57.094s57.094 25.564 57.094 57.094v823.408c0 31.532-25.562 57.098-57.096 57.098s-57.094-25.566-57.094-57.098v-16.428l-953.708-273.102-109.404 33.852c-11.408 3.532-23.806 1.428-33.414-5.654-9.61-7.082-15.284-18.308-15.284-30.25v-251.802c0-11.938 5.674-23.164 15.276-30.25 6.54-4.824 14.376-7.336 22.306-7.336 3.72 0 7.466 0.554 11.108 1.68l109.378 33.844 953.744-273.094zM1111.812 784.064v-187.068l-867.022-109.302c-0.984-0.124-1.966-0.19-2.936-0.19-0.030 0-0.056 0.006-0.084 0.006-10.858 0.042-20.44 7.678-22.674 18.586-2.44 11.904 4.7 23.682 16.382 27.028l876.334 250.94zM381.328 239.534l-103.18 29.588-14.794-51.59c-13.806-48.146-8.034-98.79 16.248-142.6 24.282-43.808 64.172-75.536 112.322-89.342l147.986-42.432c17.148-4.918 34.604-7.352 51.962-7.352 31.384 0 62.428 7.962 90.632 23.596 43.81 24.282 75.538 64.17 89.344 112.316l14.794 51.59-103.18 29.59-14.794-51.59c-5.902-20.586-19.468-37.644-38.202-48.026-18.73-10.378-40.384-12.844-60.974-6.944l-147.986 42.432c-20.584 5.902-37.644 19.468-48.026 38.202s-12.85 40.38-6.948 60.966l14.796 51.596z" horiz-adv-x="1226" />
<glyph unicode="&#xe009;" d="M533.328 376.416h706.488v-60.188h-706.488zM533.328 272.932h706.488v-60.19h-706.488zM533.328 169.446h706.488v-60.186h-706.488zM579.776 544.85l59.864-90.318h46.562v164.488h-46.562v-91.004l-60.19 91.004h-46.122v-164.488h46.448zM853.688 491.786h-85.268v32.428h76.872v33.548h-76.872v26.144h82.868v35.114h-132.372v-164.488h134.772zM947.832 454.532l27.928 103.564 28.040-103.564h48.436l35.234 164.488h-46.67l-16.91-91.96-24.78 91.96h-46.754l-24.716-92.082-16.892 92.082h-46.918l35.566-164.488zM1170.016 484.040c-9.448 0-16.718 3.328-21.804 9.986-3.126 4.114-5.198 10.096-6.214 17.952l-46.994-3.026c1.378-16.606 7.308-30.298 17.774-41.070s29.296-16.156 56.486-16.156c15.486 0 28.314 2.304 38.492 6.9 10.178 4.602 18.1 11.35 23.774 20.252 5.672 8.902 8.502 18.624 8.502 29.174 0 8.976-2.13 17.090-6.378 24.348s-11.050 13.332-20.39 18.232-24.806 9.742-46.394 14.528c-8.722 1.87-14.248 3.89-16.574 6.058-2.398 2.098-3.6 4.45-3.6 7.066 0 3.592 1.456 6.638 4.362 9.146 2.906 2.508 7.234 3.76 12.974 3.76 6.978 0 12.448-1.686 16.41-5.050 3.964-3.37 6.558-8.756 7.796-16.156l46.558 2.802c-2.038 17.056-8.414 29.494-19.138 37.308s-26.294 11.722-46.72 11.722c-16.648 0-29.752-2.148-39.31-6.448-9.558-4.302-16.722-10.214-21.478-17.728-4.762-7.52-7.142-15.506-7.142-23.956 0-12.868 4.648-23.448 13.958-31.754 9.232-8.3 24.678-14.958 46.342-19.966 13.232-2.998 21.66-6.172 25.298-9.536s5.454-7.18 5.454-11.442c0-4.49-1.91-8.434-5.726-11.84-3.83-3.406-9.266-5.106-16.318-5.106zM1365.964 786.644h-53.216c0 0-16.58 173.72-185.072 173.72h-994.476c0 0-133.138 4.118-133.138-135.388v-650.716c0 0-9.838-224.434 229.58-238.644h1006.058c0 0 174.248-2.704 174.248 183.81l-0.008 623.316c0 0 3.568 43.902-43.976 43.902zM362.024 742.742v-574.022c0 0-1.868-144.23-137.114-144.586-135.244-0.358-136.866 134.472-136.866 134.472l0.002 666.37c0 49.264 48.222 46.078 48.222 46.078 50.416 0 46.426-46.078 46.426-46.078l-0.248-652.304c-0.004-8.88 2.508-43.94 43.94-43.94 48.818 0 44.012 43.94 44.012 43.94l0.25 652.304c0.010 25.372-9.98 47.504-9.98 47.504l871.030-0.102c86.69-0.102 92.852-85.73 92.852-85.73s-781.666 0-821.908-0.148-40.618-43.758-40.618-43.758zM1321.95 115.894c-8.356-95.54-92.464-92.358-92.464-92.358l-826.132 0.036c46.082 61.066 46.546 145.156 46.546 145.156v529.998h872.050v-582.832z" horiz-adv-x="1410" />
<glyph unicode="&#xe00a;" d="M30.144 381.952l418.496-418.56c18.24-18.24 42.176-27.328 66.112-27.328s47.872 9.088 66.112 27.328c36.48 36.48 36.48 95.616 0 132.16l-246.464 246.4h537.92c56.96 0 103.168 46.144 103.168 103.168s-46.208 103.168-103.168 103.168h-543.616l252.16 252.16c36.48 36.48 36.48 95.616 0 132.16s-95.616 36.48-132.16 0l-418.496-418.56c-36.544-36.48-36.544-95.552-0.064-132.096z" horiz-adv-x="960" />
<glyph unicode="&#xe00b;" d="M512 960c282.752 0 512-229.206 512-512s-229.248-512-512-512-512 229.206-512 512 229.248 512 512 512zM207.616 402.816l277.888-277.93c12.118-12.118 27.99-18.176 43.904-18.176s31.786 6.058 43.904 18.176c24.234 24.234 24.234 63.488 0 87.766l-163.626 163.626h357.162c37.846 0 68.522 30.678 68.522 68.522s-30.72 68.522-68.522 68.522h-361.002l167.424 167.424c24.234 24.234 24.234 63.488 0 87.766s-63.488 24.234-87.766 0l-277.888-277.93c-24.234-24.236-24.234-63.532 0-87.766z" />
<glyph unicode="&#xe00c;" d="M64.202 959.5h1235.626c35.434 0 64.172-37.418 64.172-83.544v-20.864c0-46.096-28.738-83.514-64.17-83.514h-1235.628c-35.464 0-64.202 37.418-64.202 83.482v20.896c0 46.126 28.738 83.544 64.202 83.544zM64.202 541.93h1235.626c35.464 0 64.17-37.386 64.17-83.514v-20.864c0-46.158-28.738-83.514-64.17-83.514l-1235.626 0.002c-35.464 0-64.202 37.354-64.202 83.512v20.864c0 46.128 28.738 83.514 64.202 83.514zM64.202 124.422h1235.626c35.464 0 64.17-37.448 64.17-83.514v-20.894c0.002-46.158-28.736-83.514-64.17-83.514h-1235.626c-35.464 0-64.202 37.356-64.202 83.482v20.894c0 46.1 28.738 83.546 64.202 83.546z" horiz-adv-x="1364" />
<glyph unicode="&#xe00d;" d="M0 960h263.348v-263.348h-263.348v263.348zM380.326 960h263.288v-263.348h-263.288v263.348zM760.652 960h263.348v-263.348h-263.348v263.348zM0 579.674h263.348v-263.348h-263.348v263.348zM380.326 579.674h263.288v-263.348h-263.288v263.348zM760.652 579.674h263.348v-263.348h-263.348v263.348zM0 199.348h263.348v-263.348h-263.348v263.348zM380.326 199.348h263.288v-263.348h-263.288v263.348zM760.652 199.348h263.348v-263.348h-263.348v263.348z" />
<glyph unicode="&#xe00e;" d="M0 960h263.348v-263.348h-263.348v263.348zM380.326 960h443.994v-263.348h-443.994v263.348zM760.652 960h263.348v-263.348h-263.348v263.348zM0 579.674h263.348v-263.348h-263.348v263.348zM380.326 579.674h443.994v-263.348h-443.994v263.348zM760.652 579.674h263.348v-263.348h-263.348v263.348zM0 199.348h263.348v-263.348h-263.348v263.348zM380.326 199.348h443.994v-263.348h-443.994v263.348zM760.652 199.348h263.348v-263.348h-263.348v263.348z" />
<glyph unicode="&#xe00f;" d="M405.952 476.928l-246.4 246.464c-36.48 36.48-95.616 36.48-132.16 0-18.304-18.304-27.392-42.24-27.392-66.048s9.088-47.872 27.328-66.112l418.496-418.56c36.48-36.48 95.616-36.48 132.16 0l418.56 418.56c36.48 36.48 36.48 95.616 0 132.16s-95.616 36.48-132.16 0l-252.032-252.16-100.288-87.872-106.112 93.568z" />
<glyph unicode="&#xe010;" d="M483.072 341.952l-246.4-246.4c-36.48-36.48-36.48-95.616 0-132.16 18.24-18.24 42.176-27.328 66.112-27.328s47.872 9.088 66.112 27.328l418.56 418.496c36.48 36.48 36.48 95.616 0 132.16l-418.688 418.624c-36.48 36.48-95.616 36.48-132.16 0s-36.48-95.616 0-132.16l252.16-252.16 87.872-100.288-93.568-106.112z" />
<glyph unicode="&#xe011;" d="M805.41 448.068l-586.888-512.068v1024l293.41-256z" />
<glyph unicode="&#xe012;" d="M512 154.59l-512 586.82h1024l-256-293.41z" />
<glyph unicode="&#xe013;" d="M679.51 209.098c-73.476 98.15-133.816 188.262-253.682 200.008 88.47-112.736 173.094-220.604 269.042-342.866 85.224 97.976 177.674 204.278 270.104 310.562-11.264 9.93-22.49 19.862-33.714 29.812-58.6-69.652-117.2-139.36-195.894-232.892 17.544 254.474-62.792 434.486-280.306 529.118-146.45 63.72-299.334 81.688-455.022 40.014 493.124-29.154 721.786-200.452 679.472-533.756z" />
<glyph unicode="&#xe014;" d="M507.364-56.234c282.766 0 512 229.206 512 512s-229.234 512-512 512c-282.794 0-512.028-229.234-512.028-512.028s229.204-511.972 512.028-511.972zM507.364 46.136c-226.248 0-409.628 183.382-409.628 409.6s183.382 409.628 409.628 409.628c226.218 0 409.6-183.41 409.6-409.628 0-226.218-183.382-409.6-409.6-409.6zM263.254 464.156c27.562 27.592 64.284 42.808 103.31 42.808h272.84l-104.278 104.648c-19.94 20.024-19.912 52.452 0.142 72.392 19.996 19.968 52.424 19.912 72.392-0.114l190.72-191.432c19.882-19.912 19.912-52.196 0.114-72.164l-190.748-192.626c-9.984-10.040-23.154-15.132-36.38-15.132-13 0-26.026 4.92-36.010 14.792-20.082 19.882-20.224 52.31-0.37 72.392l103.794 104.79-272.216 0.026c-11.69 0-22.67-4.522-30.89-12.772s-12.8-19.256-12.8-30.92 4.552-22.67 12.772-30.89c19.968-19.996 19.996-52.394 0-72.392-10.012-9.984-23.096-14.99-36.21-14.99-13.112 0-26.226 5.006-36.21 14.99-27.592 27.562-42.808 64.284-42.808 103.31 0.026 39 15.216 75.694 42.836 103.284z" />
<glyph unicode="&#xe015;" d="M498.882 257.58c-16.816 0-33.016 6.704-45.066 18.68l-159.918 160.056c-24.878 24.868-24.878 65.192 0 90.102 24.92 24.92 65.224 24.92 90.144 0l105.234-105.192 272.794 405.602c19.66 29.19 59.274 36.94 88.506 17.268 29.21-19.586 36.918-59.23 17.398-88.462l-316.168-469.836c-10.704-15.834-27.766-26.042-46.748-27.864-2.036-0.194-4.084-0.354-6.176-0.354M722.836 389.114v-188.524c0-23.542-19.036-42.49-42.556-42.49h-424.81c-23.444 0-42.534 18.95-42.534 42.49l0.002 424.874c0 23.402 19.090 42.48 42.534 42.48h295.796l56.686 84.982h-352.472c-70.214 0-127.482-57.268-127.482-127.462v-424.896c0-70.278 57.268-127.462 127.482-127.462h424.81c70.312 0 127.504 57.182 127.504 127.462v316.030l-84.96-127.484z" horiz-adv-x="980" />
<glyph unicode="&#xe016;" d="M265.54 212.846l-27.12-189.58 66.604-29.382 121.716 147.844 22.55-9.928 312.578 708.748c-1.682 3.040-3.848 6.608-6.564 10.564-11.026 16.168-51.642 47.416-84.668 61.99-33.060 14.574-83.462 23.476-102.852 20.728-4.732-0.68-8.85-1.456-12.224-2.252l-312.57-708.772 22.55-9.96zM569.452 888.514c11.9 2.372 55.942-4.732 83.008-16.676 27.13-11.964 62.066-39.742 68.296-50.046l-30.946-70.192c-11.684 12.514-48.538 34.816-70.7 44.604-22.172 9.766-63.478 21.956-80.594 22.14l30.936 70.17zM499.702 730.332c11.878 2.372 55.942-4.722 83.008-16.676 27.142-11.976 62.066-39.742 68.306-50.046l-16.514-37.358c-24.532-8.99-58.906-53.054-84.734-111.648-25.848-58.562-35.204-113.674-25.288-137.82l-16.664-37.78c-11.674 12.514-48.548 34.806-70.7 44.592-22.15 9.788-63.478 21.968-80.584 22.14l143.17 324.596zM317.742 317.748c11.89 2.372 55.942-4.71 83.008-16.676 27.13-11.954 62.066-39.732 68.296-50.036l-27.928-63.316c-11.674 12.526-48.548 34.794-70.71 44.604-22.15 9.754-63.456 21.968-80.584 22.14l27.918 63.284z" horiz-adv-x="980" />
<glyph unicode="&#xe017;" d="M287.518 770.852c0-36.454-29.674-66.032-66.172-66.032-36.552 0-66.172 29.566-66.172 66.032 0 36.498 29.632 66.064 66.172 66.064 36.486 0 66.172-29.568 66.172-66.064zM228.266 318.276l14.326-243.884c0-8.44 6.91-15.478 15.424-15.478 8.57 0 15.554 7.038 15.554 15.478l13.204 243.884h43.116l-44.528 273.386 89.756-178.758c3.288-7.868 12.396-11.62 20.286-8.268 7.868 3.352 11.608 12.374 8.256 20.362 0 0-65.752 177.874-82.060 211.020-16.254 33.188-32.208 53.334-93.982 53.334h-12.612c-61.602 0-77.726-20.136-93.916-53.334-16.2-33.146-82.028-211.020-82.028-211.020-3.396-7.998 0.302-17.010 8.094-20.362 7.922-3.342 16.998 0.41 20.416 8.268l89.756 178.758-44.636-273.386h43.052l13.376-243.884c0-8.44 6.974-15.478 15.424-15.478 8.742 0 15.662 7.038 15.662 15.478l13.322 243.884h14.738zM755.324 837.098c-36.552 0-66.236-29.534-66.236-66.054s29.686-66.086 66.236-66.086c36.432 0 66 29.578 66 66.086 0 36.51-29.556 66.054-66 66.054zM823.856 448.108l4.398 143.738 80.724-178.802c3.33-7.804 12.492-11.62 20.34-8.224 7.998 3.406 11.684 12.45 8.332 20.426 0 0-56.838 177.874-73.092 210.954-16.266 33.134-41.294 53.302-102.96 53.302h-12.666c-61.666 0-86.77-20.146-103.026-53.302-16.146-33.080-72.984-210.954-72.984-210.954-3.342-7.988 0.28-17.020 8.202-20.426 7.934-3.396 17.096 0.42 20.242 8.224l80.864 178.802 4.388-143.738-12.74-361.376c-0.874-14.326 9.874-26.764 24.058-27.68 0.7-0.13 1.348-0.13 1.886-0.13 13.56 0 24.986 10.444 26.064 24.188l29.276 297.596 29.62-297.596c0.82-13.732 12.32-24.188 25.74-24.188 0.646 0 1.228 0 1.876 0.13 14.4 0.926 24.974 13.356 24.134 27.68l-12.762 361.374 0.086 0.002zM488.276 435.314c-22.474 0-40.648-18.066-40.648-40.464 0-22.41 18.184-40.474 40.648-40.474 22.41 0 40.604 18.076 40.604 40.474 0 22.398-18.206 40.464-40.604 40.464zM488.276 196.528c0 0 18.248-126.826 18.248-126.932 2.5-6.208 8.322-10.692 15.424-10.692 7.298 0 13.366 4.872 15.586 11.49 0.15 0.344 0.55 7.848 0.15 9.086l-7.524 155.896 2.426 53.506c2.112 18.194 2.5 12.73 23.164 25.114 21.18 12.676 57.074 68.414 58.82 71.12 1.768 2.802 5.002 7.696 5.626 10.8 1.068 5.616-2.554 10.972-8.138 12.094-4.236 0.7-7.804-1.53-10.488-4.462-2.792-2.986-44.13-58.066-75.15-63.348-6.974 0.98-14.486 4.688-34.288 4.688h-7.804c-19.66 0-27.184-3.698-34.224-4.688-31.022 5.27-72.392 60.362-75.27 63.348-2.64 2.932-6.090 5.152-10.37 4.462-5.584-1.11-9.27-6.468-8.16-12.094 0.592-3.136 3.87-7.998 5.626-10.8 1.822-2.694 37.78-58.412 58.854-71.12 20.706-12.374 21.18-6.92 23.174-25.114l2.34-53.506-7.448-155.896c-0.41-1.228 0-8.73 0.302-9.086 2.178-6.618 8.148-11.49 15.49-11.49 6.974 0 12.956 4.452 15.306 10.692 0.024 0.106 18.328 126.932 18.328 126.932z" horiz-adv-x="980" />
<glyph unicode="&#xe018;" d="M728.926 621.682h150.14v-584.618h-150.14v584.618zM519.19 816.694h149.936v-779.62l-149.936-0.010v779.63zM309.258 426.884h150.14v-389.82h-150.14v389.82zM99.436 231.872h150.032v-194.798l-150.032-0.010v194.808z" horiz-adv-x="980" />
<glyph unicode="&#xe019;" d="M972.336 497.088v0c-1.034 1.822-1.908 3.202-2.856 4.754l-2.78 4.506-5.626 8.85c-3.784 5.864-7.632 11.662-11.556 17.418-7.848 11.512-16.018 22.84-24.662 33.976-8.678 11.124-17.786 22.064-28.004 32.606-5.13 5.25-10.52 10.424-16.534 15.392-6.046 4.936-12.6 9.766-20.986 13.83l-2.048 0.992c-3.384 1.638-7.362 2.102-11.286 0.992v0c-5.53-1.25-9.582-3.17-13.226-5.098-3.6-1.962-6.726-4.010-9.636-6.112-5.81-4.204-10.832-8.58-15.586-13.064-4.742-4.484-9.206-9.066-13.484-13.744-2.156-2.328-4.236-4.688-6.338-7.082-2.102-2.446-4.042-4.71-6.262-7.47-6.392-7.966-5.184-19.606 2.684-26.106 7.976-6.554 19.758-5.4 26.29 2.554l0.184 0.204c1.562 1.876 3.504 4.14 5.304 6.198 1.854 2.092 3.74 4.16 5.638 6.208 3.804 4.064 7.75 8.008 11.716 11.652 3.934 3.664 8.008 7.050 11.878 9.788 0.614 0.42 1.142 0.754 1.714 1.142 1.51-1.562 3.008-3.212 4.494-4.97 3.622-4.312 7.136-9.13 10.51-14.152 6.78-10.078 13.032-21.084 18.938-32.336 5.918-11.274 11.448-22.894 16.718-34.644 1.11-2.5 2.178-5.044 3.266-7.566 0 0-16.578-10.38-17.516-11.102-19.208 5.724-48.236 10.638-91.308 10.638-11.296 0-23.326-0.344-35.742-1.014-103.014-5.606-167.15-20.544-218.942-51.2-12.934-2.534-28.898-4.624-46.63-4.624-18.884 0-36.218 2.36-50.068 5.13-51.652 30.322-115.658 45.12-218.102 50.704-12.406 0.668-24.436 1.014-35.754 1.014-42.404 0-71.174-4.764-90.382-10.38-0.83 0.626-17.17 10.854-17.17 10.854 1.11 2.522 2.134 5.066 3.266 7.566 5.25 11.76 10.812 23.38 16.718 34.644 5.906 11.264 12.17 22.248 18.928 32.336 3.384 5.044 6.91 9.852 10.52 14.152 1.466 1.768 2.986 3.416 4.484 4.97 0.572-0.378 1.122-0.732 1.724-1.142 3.892-2.748 7.944-6.144 11.9-9.788 3.966-3.664 7.88-7.6 11.716-11.652 1.908-2.048 3.784-4.118 5.648-6.208 1.81-2.058 3.762-4.322 5.282-6.198l0.184-0.216c6.488-7.89 18.14-9.098 26.096-2.674 8.042 6.468 9.324 18.206 2.878 26.246-2.22 2.76-4.14 5.034-6.252 7.46-2.070 2.392-4.182 4.732-6.316 7.070-4.29 4.688-8.742 9.238-13.506 13.71-4.754 4.484-9.788 8.806-15.598 13.020-2.9 2.102-6.036 4.052-9.636 6.004-3.632 1.93-7.696 4.894-13.204 4.894h-0.010c-3.632 2.274-7.664 0.97-11.308-0.798l-2.026-0.786c-8.364-4.064-14.918-8.892-20.976-13.83-6.014-4.97-11.404-10.122-16.546-15.392-10.208-10.542-19.326-21.472-27.992-32.606-8.644-11.124-16.816-22.474-24.674-33.976-3.924-5.756-7.804-11.556-11.556-17.418l-5.626-8.85-2.78-4.506c-0.948-1.562-1.822-2.942-2.868-4.742v-0.010c-6.468-10.736-5.412-24.888 3.524-34.546l5.292-5.746c0 0 31.346-32.8 34.698-35.98-1.186-33.986 1.294-86.102 24.026-116.456 37.726-50.414 117.836-60.976 178.38-60.976 49.54 0 92.872 6.856 116.834 13.268 61.106 16.34 76.606 85.056 84.26 127.288 10.596 6.338 23.402 12.084 35.042 12.084 11.426 0 23.886-5.54 34.298-11.706 7.61-42.21 23.014-111.26 84.312-127.676 24.016-6.446 67.292-13.29 116.844-13.29v0c60.566 0 140.666 10.574 178.38 60.976 22.55 30.116 25.19 81.672 24.058 115.68 4.29 3.946 35.948 36.788 35.948 36.788l5.324 5.746c8.484 9.208 10.252 23.252 3.46 34.528zM355.694 311.71c-19.554-5.218-58.044-11.35-102.12-11.35-66.216 0-114.602 13.904-132.732 38.114-11.856 15.834-14.152 58.184-12.158 90.554 11.814 3.924 35.636 9.26 78.094 9.26 10.284 0 21.256-0.312 32.638-0.938 99.878-5.432 148.416-19.974 180.408-36.336-5.412-30.58-14.444-81.358-44.13-89.304zM857.886 338.508c-18.12-24.242-66.506-38.136-132.732-38.136-44.076 0-82.556 6.122-102.108 11.35-29.686 7.944-38.75 58.724-44.13 89.326 31.992 16.34 80.508 30.914 180.408 36.336 11.362 0.636 22.356 0.938 32.638 0.938 42.448 0 66.28-5.324 78.094-9.26 2.014-32.412-0.302-74.72-12.17-90.554z" horiz-adv-x="980" />
<glyph unicode="&#xe01a;" d="M250.060 681.094c54.1 0 97.96-43.86 97.96-97.96s-43.86-97.96-97.96-97.96c-54.1 0-97.96 43.86-97.96 97.96s43.862 97.96 97.96 97.96zM103.628 214.906v103.866h18.884v-103.866h254.944v103.866h18.884v-103.866h75.55l0.012 121.004c0 65.072-33.35 128.83-109.46 128.83l-220.548 0.086c-69.362 0-113.794-56.558-113.794-127.084v-122.816l75.528-0.010zM730.058 681.094c54.1 0 97.948-43.86 97.948-97.96s-43.86-97.96-97.948-97.96-97.948 43.86-97.948 97.96 43.848 97.96 97.948 97.96zM583.648 214.906v103.866h18.896v-103.866h254.944v103.866h18.884v-103.866h75.55v121.004c0 65.072-33.36 128.83-109.46 128.83l-220.538 0.086c-69.362 0-113.804-56.558-113.804-127.084v-122.816l75.528-0.010zM502.752 514.624c2.63-1.79 5.702-2.662 9.172-2.662 3.492 0 7.124 1.8 10.876 5.432l9.216 8.978c8.45 8.202 16.708 16.47 24.738 24.76 1.304 1.348 2.554 2.674 3.848 4.032 0 0 7.266 5.238 7.266 13.916 0 7.75-7.266 14.896-7.266 14.896-1.228 1.282-2.468 2.554-3.718 3.838-8.074 8.376-16.362 16.718-24.9 24.964l-9.862 9.54c-3.342 3.256-6.532 4.872-9.626 4.872h-1.1c-2.36 0-4.28-0.312-5.778-0.884-1.466-0.592-2.942-1.476-4.408-2.662-1.562-1.24-2.942-2.662-4.226-4.214-1.174-1.476-2.070-2.932-2.63-4.44-0.614-1.476-0.906-3.31-0.906-5.54 0-2.198 0.302-4.052 0.906-5.53 0.658-1.542 1.67-3.19 3.072-4.872 1.412-1.778 3.342-3.816 5.756-6.1l5.864-5.648h-58.95c-3.6 0-6.456-0.592-8.526-1.778-2.058-1.25-3.676-2.436-4.882-3.558-1.11-1.174-2.274-2.802-3.546-4.882-1.164-2.070-1.778-4.56-1.778-7.524 0-2.954 0.604-5.454 1.778-7.524 1.262-2.092 2.436-3.708 3.546-4.904 1.196-1.11 2.824-2.296 4.882-3.546 2.092-1.164 4.936-1.79 8.526-1.79h58.076l-9.55-10.532c-3.47-3.826-5.184-7.492-5.184-10.952 0-3.406 0.894-6.436 2.652-9.108 1.844-2.514 4.054-4.724 6.662-6.578z" horiz-adv-x="980" />
<glyph unicode="&#xe01b;" d="M900.362 836.352c-66.14 66.11-154.020 102.534-247.542 102.534-93.492 0-181.402-36.392-247.512-102.502-66.1-66.1-102.534-154.020-102.492-247.532 0-55.306 13.004-108.524 37.1-156.57l-286.464-286.474c-43.13-43.212-43.13-113.172 0-156.376 21.596-21.534 49.868-32.308 78.214-32.308 28.272 0 56.546 10.804 78.152 32.308l286.434 286.494c48.088-24.104 101.274-37.12 156.6-37.14 93.532 0 181.412 36.424 247.552 102.534 66.1 66.1 102.502 154.020 102.502 247.542-0.020 93.47-36.444 181.38-102.544 247.49zM652.852 386.16c-54.088 0-105.012 21.114-143.32 59.402-38.246 38.278-59.33 89.15-59.33 143.288-0.040 54.128 21.064 105 59.33 143.278 38.278 38.278 89.15 59.33 143.288 59.33s105.042-21.054 143.32-59.33c38.278-38.278 59.33-89.18 59.33-143.32 0.030-54.138-21.054-105.012-59.3-143.288-38.308-38.264-89.18-59.36-143.318-59.36z" />
<glyph unicode="&#xe01c;" d="M218.522 448.068l586.888-512.068v1024l-293.41-256z" />
<glyph unicode="&#xe01d;" d="M131.802 681.032c-9.44 21.886-14.228 45.162-14.228 69.184 0 96.394 78.422 174.818 174.818 174.818 72.066 0 137.73-45.228 163.398-112.552 7.578-19.866 11.42-40.818 11.42-62.268h-26.896c0 18.162-3.25 35.888-9.656 52.684-21.716 56.966-77.282 95.238-138.266 95.238-81.564 0-147.922-66.358-147.922-147.922 0-20.334 4.048-40.028 12.030-58.532l-24.698-10.65zM368.692 826.648c-0.13 3.098-0.752 6.224-1.986 9.26l-0.396 0.97c-5.756 14.182-21.918 21.014-36.104 15.258l-49.082-19.922-15.516 38.224c9.284 11.494 12.22 27.538 6.27 42.196-8.72 21.492-33.202 31.838-54.69 23.118-21.482-8.722-31.832-33.208-23.11-54.692 5.99-14.76 19.424-24.26 34.212-25.936l15.454-38.076-51.572-20.932c-14.186-5.756-21.014-21.922-15.258-36.104l0.394-0.97c1.296-3.19 3.14-5.982 5.344-8.368-161.288-114.814-228.958-329.122-151.252-520.566 90.828-223.784 345.874-331.564 569.656-240.732 223.782 90.828 331.564 345.874 240.732 569.656-77.946 192.036-276.822 298.64-473.096 267.616M556.274 99.708c-163.896-66.524-350.694 12.41-417.21 176.312-66.524 163.896 12.412 350.694 176.312 417.212 163.9 66.524 350.69-12.412 417.212-176.312 66.522-163.896-12.414-350.69-176.314-417.212M406.668 327.786l-130.332 12.134 269.182 197.658-101.070-318.296zM545.456 537.622l-12.398-9.020-121.876-186.138-4.572-14.636 37.78-108.506z" horiz-adv-x="874" />
<glyph unicode="&#xe01e;" d="M191.596 699.588c-0.196-0.176-0.372-0.31-0.538-0.486-0.37 1.312-0.338 1.596 0.538 0.486M254.902 765.030c-9.378 0-17.716 6.682-19.472 16.242l-18.502 100.452c-1.984 10.766 5.138 21.102 15.91 23.084 10.742 2.008 21.106-5.134 23.084-15.91l18.502-100.452c1.984-10.766-5.138-21.102-15.908-23.084-1.214-0.224-2.424-0.332-3.614-0.332zM459.362 778.752c-0.962 0-1.94 0.072-2.924 0.218-10.832 1.604-18.316 11.682-16.712 22.512l19.404 131.166c1.604 10.822 11.654 18.298 22.518 16.712 10.824-1.604 18.308-11.684 16.704-22.514l-19.4-131.17c-1.452-9.84-9.916-16.924-19.59-16.924zM632.938 685.732c-4.98 0-9.96 1.862-13.816 5.602-7.852 7.632-8.028 20.18-0.404 28.036l89.874 92.522c7.636 7.86 20.184 8.034 28.036 0.412 7.852-7.632 8.030-20.18 0.404-28.036l-89.874-92.518c-3.888-4.004-9.054-6.018-14.22-6.018zM712.234 503.342c-10.778 0-19.618 8.628-19.818 19.454-0.202 10.952 8.51 19.99 19.462 20.188l142.742 2.64c10.766 0.302 19.982-8.504 20.188-19.454 0.202-10.952-8.51-19.99-19.462-20.188l-142.746-2.64c-0.12 0-0.244 0-0.366 0zM96.004 254.842c0-6.662-3.236-26.564-0.918-36.972 2.32-10.44 16.274-12.81 21.86-13.77-7.896-10.42 11.054-18.524 17.228-26.546 2.992-10.038-3.71-25.726 17.678-44.702 33.304-29.508 109.692-14.126 109.692-14.126 2.79-12.81-6.37-63.24-6.37-63.24-37.694-28.454-100.688-115.192-100.688-115.192l432.192-0.002c-5.102 61.658-90.006 147.9-101.648 165.436-2.204 3.364-12.088 6.182-12.088 6.182-10.238 84.4 53.514 99.576 53.522 99.576 18.356 4.354 38.356 30.082 47.944 44.67 31.116 47.306 41.488 108.562 49.812 163.548 10.7 70.754 2.666 130.178-31.116 193.356-58.428 109.24-191.084 116.838-300.116 96.312-39.596-7.454-78.764-19.38-112.662-41.674 0 0-4.632-3.048-11.698-9.334-0.192-0.176-0.358-0.31-0.526-0.486-2.988-2.64-6.4-5.882-10.056-9.696-0.984-0.21-1.984-0.378-2.992-0.514-20.27-2.586-54.316-11.558-56.884 9.27-10.47-18.068-4.722-41.308 12.872-51.896 3.716-2.216 7.674-3.732 11.67-4.522-1.902-2.702-3.85-5.546-5.746-8.536-1.542-0.054-3.102-0.030-4.668 0.062-10.576 0.62-20.068 4.514-26.99 10.408-3.39 4.788-3.83 3.67-3.83 3.67s-6.47 9.3-7.566 14.678c-0.364-2.42-0.388-4.838-0.142-7.308 1.398-12.234 10.644-21.994 23.29-26.378 3.404-2.368 7.194-4.322 11.358-5.81 0.588-0.202 1.172-0.396 1.762-0.574-22.398-39.798-47.686-83.456-31.866-165.402 6.696-34.74 20.024-25.834 20.466-60.454 0.472-34.604-27.444-48.374-32.548-69.718-5.134-21.322 29.772-30.316 29.772-30.316z" horiz-adv-x="874" />
<glyph unicode="&#xe01f;" d="M420.838 330.444c-108.908 0-197.22-88.29-197.22-197.22 0-108.924 88.312-197.222 197.22-197.222 108.916 0 197.226 88.312 197.226 197.222 0.018 108.93-88.292 197.22-197.226 197.22M420.838 14.886c-65.248 0-118.336 53.090-118.336 118.336 0 65.248 53.092 118.344 118.336 118.344 65.254 0 118.342-53.1 118.342-118.344 0.002-65.248-53.092-118.336-118.342-118.336M554.246 950.952c-12.064 12.064-31.618 12.064-43.666 0l-89.738-89.738-89.734 89.738c-12.070 12.064-31.62 12.064-43.666 0l-12.11-12.11c-12.064-12.064-12.064-31.618 0-43.666l89.734-89.738-89.734-89.738c-12.064-12.062-12.064-31.612 0-43.66l12.11-12.116c12.064-12.062 31.612-12.062 43.666 0l89.73 89.738 89.738-89.738c12.064-12.062 31.618-12.062 43.666 0l12.11 12.116c12.064 12.064 12.064 31.612 0 43.66l-89.734 89.736 89.738 89.738c12.064 12.062 12.064 31.614 0 43.666l-12.11 12.112zM171.836 483.188c197.92 40.33 440.282 37.904 502.396 36.616v76.306c0 3.676 0.76 7 4.164 8.412 3.4 1.414 6.596 0.638 9.192-1.972l116.086-116.432c2.628-2.624 3.864-6.198 3.788-9.89-0.076-3.694-1.754-7.206-4.49-9.722l-114.83-105.218c-2.918-2.684-5.73-3.388-9.348-1.782-3.632 1.596-4.548 5.184-4.548 9.156v72.224c-62.114 1.102-296.822 3.676-486.648-34.988-28.636-5.834-55.66-12.442-81.166-19.76-21.77 21.51-35.908 45.188-40.704 70.176 33.060 10.24 68.432 19.2 106.108 26.874z" horiz-adv-x="874" />
<glyph unicode="&#xe020;" d="M-0.922 600.526l364.922 359.474 364.922-359.468-729.844-0.006zM-0.922 295.468l364.922-359.468 364.922 359.474-729.844-0.006z" horiz-adv-x="728" />
<glyph unicode="&#xe021;" d="M575.87-64h-191.87v512h-128v176.45l128 0.058-0.208 103.952c0 143.952 39.034 231.54 208.598 231.54h141.176v-176.484h-88.23c-66.032 0-69.206-24.656-69.206-70.684l-0.262-88.324h158.69l-18.704-176.45-139.854-0.058-0.13-512z" />
<glyph unicode="&#xe022;" d="M437.006 141.838c0-75.068-46.39-134.392-177.758-139.176-76.984 43.786-141.49 106.952-186.908 182.866 23.69 58.496 97.692 103.046 182.316 102.114 24.022-0.252 46.41-4.114 66.744-10.7 55.908-38.866 101-63.152 112.324-107.448 2.114-8.964 3.282-18.206 3.282-27.656zM512 960c-147.94 0-281.196-62.77-374.666-163.098 36.934 20.452 80.538 32.638 126.902 32.638 67.068 0 256.438 0 256.438 0l-57.304-60.14h-67.31c47.496-27.212 72.752-83.248 72.752-145.012 0-56.692-31.416-102.38-75.78-137.058-43.28-33.802-51.492-47.966-51.492-76.734 0-24.542 51.722-61.098 75.5-78.936 82.818-62.112 99.578-101.184 99.578-178.87 0-78.726-68.936-157.104-185.866-183.742 56.348-21.338 117.426-33.048 181.248-33.048 282.77 0 512 229.23 512 512s-229.23 512-512 512zM768 576v-128h-64v128h-128v64h128v128h64v-128h128v-64h-128zM365.768 620.528c11.922-90.776-27.846-149.19-96.934-147.134-69.126 2.082-134.806 65.492-146.74 156.242-11.928 90.788 34.418 160.254 103.53 158.196 69.090-2.074 128.22-76.542 140.144-167.304zM220.886 317.932c-74.68 0-138.128-25.768-182.842-63.864-24.502 59.82-38.044 125.29-38.044 193.932 0 56.766 9.256 111.368 26.312 162.396 7.374-99.442 77.352-176.192 192.97-176.192 8.514 0 16.764 0.442 24.874 1.022-7.95-15.23-13.622-32.19-13.622-49.982 0-29.97 16.488-47.070 36.868-66.894-15.402 0-30.27-0.418-46.516-0.418z" />
<glyph unicode="&#xe023;" d="M992 576h-352v352c0 17.672-14.328 32-32 32h-192c-17.672 0-32-14.328-32-32v-352h-352c-17.672 0-32-14.328-32-32v-192c0-17.672 14.328-32 32-32h352v-352c0-17.672 14.328-32 32-32h192c17.672 0 32 14.328 32 32v352h352c17.672 0 32 14.328 32 32v192c0 17.672-14.328 32-32 32z" />
<glyph unicode="&#xe024;" d="M512-64c-282.314 0-512 229.686-512 512s229.686 512 512 512 512-229.686 512-512c0-282.314-229.686-512-512-512zM512 885.408c-241.184 0-437.408-196.224-437.408-437.408s196.224-437.408 437.398-437.408 437.408 196.224 437.408 437.408-196.214 437.408-437.398 437.408zM497.526 460.352h-30.602l-59.062-59.062-59.062 59.062h-33.686c-43.52 0-78.794-35.286-78.794-78.794v-78.774h339.978v78.774c0.022 43.52-35.252 78.794-78.772 78.794zM321.696 552.586c-0.001-0.122-0.001-0.267-0.001-0.411 0-46.74 37.89-84.63 84.63-84.63 46.74 0 84.63 37.89 84.63 84.63 0 0.145 0 0.289-0.001 0.434 0.001 0.1 0.001 0.244 0.001 0.389 0 46.74-37.89 84.63-84.63 84.63-46.74 0-84.63-37.89-84.63-84.63 0-0.145 0-0.289 0.001-0.434zM735.36 407.402h-20.31l-39.2-39.2-39.21 39.2h-22.368c-28.874 0-52.298-23.414-52.298-52.31v-52.288h225.706v52.288c-0.010 28.898-23.434 52.31-52.32 52.31zM618.624 468.64c-0.003-0.223-0.005-0.486-0.005-0.75 0-31.034 25.158-56.192 56.192-56.192 31.034 0 56.192 25.158 56.192 56.192 0 0.264-0.002 0.527-0.005 0.789 0.004 0.183 0.005 0.446 0.005 0.71 0 31.034-25.158 56.192-56.192 56.192-31.034 0-56.192-25.158-56.192-56.192 0-0.264 0.002-0.527 0.005-0.789z" />
<glyph unicode="&#xe025;" d="M512.022-63.99c-282.336 0-512.022 229.676-512.022 512.012 0 282.314 229.686 511.978 512.022 511.978 282.304 0 511.978-229.664 511.978-511.978 0-282.336-229.674-512.012-511.978-512.012zM512.022 885.408c-241.196 0-437.43-196.214-437.43-437.386 0-241.194 196.234-437.418 437.43-437.418 241.174 0 437.386 196.234 437.386 437.418 0 241.172-196.214 437.386-437.386 437.386zM538.848 568.17c-7.882 32.714-2.858 67.68 30.058 84.352-7.062 1.216-12.512 12.426-9.206 18.016-39.35-20.138-49.674-60.384-41.802-100.928 6.838-1.172 13.91-1.792 20.95-1.44zM523.178 568.074c-26.198 111.99-105.994 93.184-203.264 76.448 130.134-105.994 135.468-51.008 203.264-76.448zM568.214 542.090c-27.562-9.782-55.318-8.224-83.338 0-139.338 40.768-175.498-56.576-117.194-165.206 17.194-32.042 23.222-49.014 25.29-82.080 3.286-51.498 40.426-77.802 103.798-66.528 15.99 2.858 32.266 1.696 49.408-1.782 62.496-12.566 104.31 10.966 115.766 77.398 4.694 27.21 8.672 37.174 25.398 62.102 70.61 105.526-1.56 217.952-119.128 176.096z" />
<glyph unicode="&#xe5fc;" d="M126.811 960l770.262-512-770.262-512 193.291 512z" />
<glyph unicode="&#xe600;" d="M740.608 588.308c-7.752 7.711-17.254 11.377-28.191 11.469-25.59 0.215-47.432-9.206-66.744-25.539-12.472-10.557-3.174-4.055-16.353-13.67-10.926-7.987-22.518-15.421-34.714-21.279-15.503-7.444-14.131 7.045-14.070 25.672 0.399 103.475 0.205 182.886 0.205 286.372 0 1.761 0.041 3.533-0.051 5.284-0.614 13.046-10.076 23.112-23.962 25.518-13.097 2.273-27.3-4.495-31.437-15.892-1.761-4.803-2.038-10.342-2.038-15.555 0.102-40.428 0.44-95.293 0.655-135.721 0.020-2.867 0.092-5.929-0.829-8.55-1.034-2.877-2.673-6.001-4.977-7.885-5.622-4.588-12.175-3.891-18.063-0.584-5.591 3.154-10.762 7.465-10.772 14.664-0.113 57.283-0.164 128.993 0.010 186.255 0.041 14.694-8.387 30.269-30.136 28.273-13.906-1.28-23.828-11.141-23.757-25.262 0.287-58.716 0.707-131.871 1.137-190.587 0.072-8.96-5.642-15.473-13.988-15.493-8.264-0.010-12.022 4.69-12.012 14.694 0.020 44.595-0.031 103.639 0.061 148.244 0.010 7.444-2.888 13.394-8.202 18.248-8.294 7.588-18.135 10.66-29.266 9.37-17.132-1.976-28.037-14.234-28.037-31.355 0-43.162 0-100.751-0.010-143.913 0-2.243 0.082-4.516-0.246-6.728-0.932-6.308-6.277-10.015-13.015-9.216-6.472 0.758-11.008 5.868-10.926 11.868 0.266 19.241 0.778 52.941 0.379 72.172-0.102 5.294-2.068 11.182-4.946 15.657-6.789 10.568-21.371 14.561-33.894 10.455-12.216-4.024-19.241-14.019-19.251-27.402-0.031-78.612-0.051-133.161-0.082-211.763 0-1.536 0-3.072 0-5.581 0.020 0.010 0.031 0.031 0.051 0.041v-40.356c-0.031 0.020-0.051 0.051-0.092 0.082-0.799-16.445 0.563-31.857 3.697-47.094 5.919-28.713 17.183-51.681 35.697-69.335v-419.912h241.295v384.983c5.192 0.973 10.373 2.089 15.514 3.389 28.488 7.158 40.438 12.626 58.317 36.741 5.356 7.199 11.244 14.039 16.282 21.453 19.282 28.385 16.896 39.434 35.656 68.157 8.95 13.711 20.265 23.777 35.891 28.938 4.69 1.546 9.4 3.308 13.773 5.612 6.769 3.574 13.855 6.963 19.732 11.735 13.752 11.162 14.254 30.863 1.71 43.325z" />
<glyph unicode="&#xe601;" d="M1023.884 833.189l-512-770.378-511.884 770.378 511.884-193.291z" />
<glyph unicode="&#xe602;" d="M918.548 896.44h-822.938c-30.372 0-55.982-20.244-55.982-50.627 0-24.453 6.963-40.765 37.683-47.944v-429.988c0-28.099 24.648-55.122 52.746-55.122h326.134v-46.572l-207.616-207.688c-9.626-9.605-15.626-22.405-15.626-36.035 0-13.609 5.878-26.409 15.493-36.014 9.626-9.626 22.999-14.94 36.608-14.94s25.743 5.315 35.379 14.94l135.762 135.639v-99.615c0-28.088 17.981-50.964 46.080-50.964s46.080 22.866 46.080 50.964v99.615l140.472-135.619c9.615-9.636 25.129-14.95 38.748-14.95 13.609 0 27.331 5.315 36.936 14.93 9.626 9.615 15.319 22.405 15.319 36.024 0 13.619-9.595 26.399-19.21 36.024l-212.265 207.688v46.572h329.943c28.099 0 48.937 27.023 48.937 55.122v428.339c30.72 4.997 45.425 22.856 45.425 49.592-0.010 30.382-23.726 50.627-54.108 50.627zM845.312 394.68h-686.080v399.36h686.080v-399.36zM255.099 431.493c30.177 0 54.651 24.474 54.651 54.651 0 1.096-0.256 2.13-0.328 3.215l232.448 152.248c3.779-0.829 7.68-1.321 11.715-1.321 8.407 0 16.292 2.058 23.398 5.458l121.446-65.321c6.093-23.562 27.279-41.032 52.726-41.032 30.177 0 54.651 24.474 54.651 54.651 0 30.188-24.474 54.651-54.651 54.651-11.704 0-22.477-3.748-31.365-10.004l-111.964 60.221c-2.068 28.293-25.426 50.678-54.252 50.678-30.188 0-54.651-24.463-54.651-54.651 0-2.57 0.41-5.038 0.748-7.516l-228.116-149.422c-5.222 1.659-10.68 2.796-16.456 2.796-30.177 0-54.651-24.484-54.651-54.661s24.474-54.641 54.651-54.641z" />
<glyph unicode="&#xe603;" d="M706.734 303.268c-52.756 0-99.83-24.003-131.123-61.614l-175.38 87.47c6.42 17.889 10.004 37.11 10.004 57.201 0 24.852-5.407 48.394-15.002 69.652l152.627 149.33c19.712-8.028 41.206-12.544 63.826-12.544 94.259 0 170.68 76.411 170.68 170.68s-76.421 170.711-170.68 170.711c-94.29 0-170.711-76.421-170.711-170.691 0-39.086 13.312-74.977 35.43-103.741l-137.748-134.779c-27.945 20.050-62.075 32.082-99.113 32.082-94.259 0-170.691-76.421-170.691-170.691s76.431-170.691 170.691-170.691c41.626 0 79.585 15.114 109.179 39.895l189.757-94.648c-1.546-9.216-2.427-18.657-2.427-28.324 0-94.28 76.39-170.721 170.68-170.721 94.259 0 170.691 76.442 170.691 170.721s-76.431 170.701-170.691 170.701zM485.56 740.639c0 81.306 66.15 147.456 147.466 147.456 12.995 0 23.552-10.557 23.552-23.542 0-12.984-10.557-23.552-23.552-23.552-55.337 0-100.372-45.015-100.372-100.372 0-12.974-10.557-23.532-23.552-23.532-12.974 0.010-23.542 10.568-23.542 23.542zM270.203 454.482c-55.337 0-100.362-45.025-100.362-100.362 0-12.984-10.568-23.542-23.552-23.542-12.984 0-23.542 10.557-23.542 23.542 0 81.295 66.15 147.456 147.466 147.456 12.995 0 23.552-10.557 23.552-23.542-0.010-12.984-10.578-23.552-23.562-23.552zM738.171 202.732c-55.337 0-100.362-45.015-100.362-100.372 0-12.984-10.568-23.532-23.562-23.532-12.984 0-23.542 10.547-23.542 23.532 0 81.306 66.15 147.456 147.456 147.456 12.995 0 23.562-10.557 23.562-23.542 0.010-12.984-10.568-23.542-23.552-23.542z" />
<glyph unicode="&#xe604;" d="M370.237 437.299h140.8v-281.692h-140.8v281.692zM440.658 822.538l-364.749-330.383h56.32v-394.752h616.827v394.752h56.351l-364.749 330.383zM902.81 366.694c20.49 0 37.089-16.599 37.089-37.089s-16.599-37.089-37.089-37.089-37.089 16.599-37.089 37.089 16.599 37.089 37.089 37.089zM919.296 284.262h-32.973c-22.671 0-41.206-18.545-41.206-41.196v-32.963c0-15.165 8.315-28.447 20.603-35.615v-46.817c0-18.135 14.848-32.963 32.983-32.963h8.233c18.135 0 32.973 14.828 32.973 32.963v46.817c12.278 7.148 20.613 20.439 20.613 35.615v32.963c-0.010 22.651-18.565 41.196-41.226 41.196z" />
<glyph unicode="&#xe605;" d="M178.76 44.114h-159.324v27.802c0 61.993 71.475 98.345 117.637 114.196 0.42 0.164 0.829 0.307 1.28 0.471 46.899 16.323 83.18 31.232 87.962 49.183 4.7 17.603-8.223 27.791-25.836 53.105-0.051 0.072-0.051 0.143-0.102 0.205-24.883 35.287-40.253 82.145-40.253 129.423 0 95.416 62.587 156.262 139.796 156.262 32.553 0 62.484-10.854 86.241-30.515-0.256-0.266-0.532-0.522-0.778-0.799-38.052-40.817-59.003-98.068-59.003-161.188 0-59.904 18.657-121.457 51.323-169.8l3.052-4.485c4.997-7.158 9.533-13.169 13.537-18.473 0.829-1.096 1.71-2.263 2.58-3.43-10.639-5.632-30.065-13.937-64.983-26.092-0.635-0.215-1.229-0.44-1.812-0.655-75.909-26.214-128.287-66.673-151.316-115.21zM722.493 119.286c-52.398 18.278-92.826 35.011-98.202 55.132-1.792 6.707-1.27 12.483 0.922 18.268 3.994 10.527 13.588 21.156 25.477 37.765 10.854 14.633 20.183 31.191 27.699 48.968 13.169 31.14 20.726 66.058 20.726 101.192 0 52.214-16.63 95.201-43.663 125.686-28.733 32.399-69.212 50.668-114.104 50.668-44.892 0-85.371-18.268-114.104-50.668-27.034-30.484-43.663-73.472-43.663-125.686 0-35.092 7.547-69.96 20.685-101.059 6.83-16.179 15.145-31.355 24.75-44.995 0.051-0.072 0.051-0.143 0.113-0.215 13.148-18.903 23.941-30.331 28.232-41.646 2.191-5.786 2.724-11.561 0.922-18.278-5.396-20.265-46.336-37.079-99.267-55.501-0.512-0.184-0.983-0.358-1.444-0.532-35.789-12.298-85.064-35.512-112.404-71.516-12.452-16.404-20.357-35.461-20.357-57.364v-31.375h633.088v31.375c0 21.903-7.956 40.95-20.449 57.364-28.088 36.905-79.217 60.385-114.954 72.417zM557.251 457.452c-24.402 0-44.175-19.784-44.175-44.175s19.784-44.175 44.175-44.175 44.175 19.784 44.175 44.175-19.773 44.175-44.175 44.175zM768.573 917.33c-112.036 0-202.875-64.748-202.875-144.609 0-56.003 44.749-104.479 110.080-128.492-21.76-8.612-36.086-23.265-36.086-39.895 0-26.511 36.383-48.005 81.254-48.005s81.244 21.494 81.244 48.005c0 9.032-4.301 17.459-11.643 24.668 101.704 7.813 180.91 69.151 180.91 143.729-0.010 79.852-90.839 144.599-202.885 144.599M768.573 953.17c133.857 0 238.715-79.258 238.715-180.449 0-81.224-70.257-150.385-169.411-172.79-2.98-45.609-52.255-79.462-116.941-79.462-66.755 0-117.094 36.045-117.094 83.845 0 11.233 2.826 21.955 8.161 31.764-51.722 33.618-82.145 82.862-82.145 136.632 0 101.192 104.847 180.46 238.715 180.46v0z" />
<glyph unicode="&#xe606;" d="M512 86.733c-25.6 0-45.64 19.712-45.64 44.882 0 25.928 20.040 45.64 45.64 45.64 25.59 0 45.64-19.712 45.64-44.882 0-25.928-20.050-45.64-45.64-45.64zM512 210.493c-16.128 0-28.221 11.254-30.085 27.986l-16.23 128.532c-1.014 9.636 1.567 18.33 7.229 24.607 5.161 5.724 12.483 8.878 20.603 8.878h36.977c8.11 0 15.421-3.164 20.582-8.878 5.663-6.277 8.233-14.981 7.24-24.494l-16.241-128.676c-1.864-16.712-13.957-27.955-30.075-27.955zM137.236-18.575c-12.626 0-24.177 10.977-30.136 22.118-5.97 11.141-5.315 26.614 1.7 37.12l374.569 562.852c6.369 9.533 16.998 15.729 28.447 15.729s22.077-5.437 28.436-14.971l371.702-557.384c0.266-0.399 0.573-0.727 0.881-1.096 5.243-6.164 8.12-18.053 8.12-26.153 0-18.77-15.206-38.216-33.946-38.216-0.174 0-0.799 0-0.973 0h-748.8zM511.805 513.802c-4.219 0-8.161-2.109-10.506-5.622l-287.099-430.633c-2.58-3.871-2.826-11.264-0.635-15.37 2.202-4.106 6.482-9.083 11.131-9.083h574.198c4.649 0 8.929 4.966 11.131 9.083s1.956 10.291-0.635 14.172l-287.068 431.227c-2.345 3.512-6.277 6.226-10.516 6.226zM327.885 607.775c6.42 6.41 9.964 14.94 9.964 24.013 0 9.083-3.543 17.613-9.953 24.003l-123.955 123.955c-6.41 6.42-14.93 9.953-24.013 9.953-9.073 0-17.592-3.533-24.003-9.943-6.42-6.41-9.953-14.94-9.953-24.013s3.533-17.592 9.953-24.003l123.955-123.955c6.41-6.42 14.93-9.953 24.013-9.953 9.062 0 17.592 3.533 23.992 9.943zM543.232 720.609v175.309c0 19.036-14.633 33.956-33.311 33.956s-33.311-14.92-33.311-33.956v-175.319c0-19.036 14.633-33.946 33.311-33.946s33.311 14.92 33.311 33.956zM756.736 607.785l123.945 123.945c6.431 6.41 9.974 14.94 9.974 24.023s-3.543 17.603-9.943 23.992c-6.41 6.42-14.94 9.953-24.013 9.953s-17.603-3.533-24.013-9.943l-123.945-123.955c-6.41-6.41-9.953-14.94-9.953-24.013s3.533-17.592 9.943-24.003c6.41-6.41 14.94-9.953 24.013-9.953s17.592 3.543 23.992 9.953z" />
<glyph unicode="&#xe607;" d="M205.926 209.828c-0.256-7.762-4.721-14.766-11.643-18.299-3.062-1.556-6.4-2.335-9.718-2.335-4.188 0-8.356 1.229-11.94 3.656l-145.213 98.14c-6.267 4.239-9.83 11.469-9.37 19.005 0.471 7.547 4.884 14.295 11.622 17.715l29.46 15.012c-8.038 34.017-12.431 69.417-12.431 105.841 0 180.408 104.632 336.712 256.328 411.771-0.973-5.345-1.546-10.824-1.546-16.445 0-25.928 10.742-49.306 27.965-66.058-117.309-63.13-197.304-186.962-197.304-329.267 0-22.405 2.058-44.319 5.857-65.638l42.854 21.842c3.062 1.556 6.39 2.335 9.697 2.335 2.243 0 4.465-0.348 6.605-1.055 1.7-0.553 3.328-1.321 4.874-2.304 6.38-4.055 10.127-11.192 9.882-18.739l-5.98-175.176zM398.899 818.719l161.321-68.495c2.683-1.137 5.519-1.7 8.335-1.7 4.495 0 8.97 1.423 12.698 4.188 1.475 1.085 2.775 2.335 3.901 3.717 3.523 4.342 5.253 9.964 4.659 15.667l-4.311 41.421c128.696-28.047 232.673-122.45 274.36-245.514 19.343 12.544 41.964 19.876 66.253 19.876 6.072 0 11.991-0.604 17.838-1.485-51.866 164.403-193.792 289.126-367.708 315.955l-4.014 38.502c-0.778 7.516-5.478 14.070-12.36 17.213-2.826 1.3-5.847 1.935-8.858 1.935-4.311 0-8.581-1.3-12.227-3.84l-143.749-100.26c-6.38-4.424-9.83-12.001-9.021-19.732 0.788-7.731 5.734-14.408 12.882-17.449zM1007.606 327.619l-55.337 166.298c-2.427 7.373-8.724 12.82-16.364 14.254-1.311 0.236-2.621 0.358-3.922 0.358-6.298 0-12.37-2.806-16.466-7.772l-111.462-135.26c-4.803-5.827-6.175-13.773-3.584-20.879 0.625-1.72 1.444-3.318 2.447-4.792 3.164-4.608 8.059-7.864 13.711-8.909l41.411-7.711c-16.783-46.95-42.68-89.59-75.561-125.778-26.655 15.811-59.679 27.32-80.23 34.243-57.405 20.029-101.714 38.359-107.602 60.406-1.956 7.363-1.393 13.67 1.014 20.019 4.372 11.54 14.889 23.183 27.924 41.38 11.878 16.036 22.108 34.181 30.351 53.658 14.428 34.109 22.712 72.366 22.712 110.868 0 57.201-18.217 104.315-47.841 137.708-31.478 35.502-75.827 55.511-125.010 55.511-49.193 0-93.542-20.019-125.020-55.521-29.624-33.393-47.841-80.517-47.841-137.708 0-38.451 8.264-76.646 22.661-110.725 7.475-17.725 16.579-34.355 27.238-49.531 14.397-20.716 26.225-33.239 30.935-45.64 2.406-6.349 2.98-12.667 1.014-20.029-5.919-22.2-50.77-40.632-108.759-60.805-0.563-0.205-1.075-0.389-1.587-0.584-2.908-1.004-5.97-2.202-8.95-3.267 0.696-4.915 1.178-9.902 1.178-15.012 0-54.784-41.011-99.901-93.983-106.568 81.203-72.428 188.18-116.552 305.295-116.552 204.001 0 377.221 133.755 436.92 318.126l40.55-7.537c1.3-0.246 2.611-0.369 3.912-0.369 6.113 0 12.001 2.632 16.097 7.332 4.966 5.704 6.543 13.609 4.147 20.787z" />
<glyph unicode="&#xe608;" d="M730.931 700.703c45.742 0 82.801 38.267 82.801 85.443 0 47.278-37.059 85.504-82.801 85.504-45.711 0-82.76-38.226-82.76-85.504 0-47.165 37.048-85.443 82.76-85.443zM868.772 486.656c-26.317 2.56-104.141 13.773-104.141 13.773l-80.589 156.396-0.164-0.317c-4.772 10.588-44.974 39.762-57.457 40.673l-0.051 0.154-188.396 19.948c-13.281 1.219-23.593-2.068-32.020-11.53-0.317-0.389-69.417-81.111-86.548-102.154-17.121-21.002-18.35-37.417-6.82-49.357 11.551-11.827 27.249-10.158 47.596 7.25 20.326 17.377 81.736 66.13 81.736 66.13s30.403-8.858 70.861-23.808l-91.74-142.193c-22.415-31.969-15.462-76.575 15.503-99.717 2.437-1.751 141.056-110.909 141.056-110.909l-53.606-180.081c-9.513-21.514-0.287-46.879 20.603-56.658 5.56-2.642 11.377-3.881 17.132-3.881 15.79 0 30.822 9.288 37.765 25.098 0 0 89.17 202.762 89.231 202.947 10.404 23.347 0.891 42.588-11.581 59.556-12.472 16.998-102.339 139.469-102.339 139.469l68.639 78.735 63.58-82.934c8.561-10.578 18.135-15.79 30.607-15.206 0.471 0.082 104.643 6.707 131.154 9.114 26.542 2.345 38.636 13.015 38.636 29.87-0.010 16.824-12.288 27.085-38.646 29.635zM373.658 376.852l-68.598-71.414c0 0-118.405-17.838-144.271-21.545-25.897-3.697-41.482-19.149-41.482-42.824 0-23.613 18.545-42.813 41.482-42.813 0 0 125.471 0 146.115 0 26.071 0 46.449 12.042 57.252 20.808 23.654 19.282 66.98 53.862 90.317 73.82-23.368 18.381-40.776 32.061-42.895 33.669-17.234 12.892-30.188 30.31-37.919 50.299z" />
<glyph unicode="&#xe609;" d="M651.52 69.929l35.021-93.020c-3.942-1.475-7.977-2.898-11.95-4.321-0.174-0.031-0.246-0.072-0.369-0.133 0 0-0.061-0.020-0.092 0-0.082-0.020-0.205-0.061-0.287-0.102-0.061-0.020-0.061-0.020-0.061-0.020-0.102-0.020-0.215-0.092-0.369-0.195 0 0 0 0.041-0.041 0-0.102-0.020-0.195-0.082-0.307-0.102l-0.113 0.020c-0.092-0.082-0.184-0.113-0.297-0.154 0 0-0.041 0-0.041-0.020-0.113-0.020-0.215-0.061-0.369-0.123-0.154-0.061-0.246-0.061-0.41-0.102-0.502-0.195-1.004-0.399-1.526-0.543v-0.041c-0.143-0.031-0.246-0.051-0.399-0.113 0-0.020 0-0.020-0.051 0-0.102-0.061-0.215-0.082-0.307-0.102-0.031-0.020-0.031-0.020-0.031-0.020-0.174-0.020-0.205-0.113-0.317-0.133-0.051-0.041-0.092 0-0.092-0.041-0.123 0-0.215-0.041-0.328-0.082-0.031 0.020-0.031 0-0.102 0-0.102-0.061-0.205-0.061-0.225-0.123-0.072 0.020-0.164-0.031-0.164-0.031-0.123 0-0.164-0.082-0.246-0.123 0-0.020-0.133 0-0.133-0.061-0.082 0-0.205-0.020-0.236-0.041-0.051-0.020-0.102-0.041-0.164-0.072-0.041-0.020-0.133-0.020-0.236-0.082-0.051 0-0.051 0-0.102-0.020-0.123-0.041-0.215-0.061-0.317-0.082 0 0-0.041-0.020-0.092-0.041-0.051-0.041-0.164-0.061-0.246-0.061 0-0.031-0.123-0.072-0.123-0.072-0.154-0.041-0.215-0.041-0.338-0.143 0 0 0 0-0.072 0-0.236-0.061-0.502-0.154-0.707-0.246-0.092 0-0.092-0.020-0.164-0.041-0.092-0.020-0.133-0.041-0.236-0.061-0.051 0-0.092-0.051-0.164-0.072-0.051 0-0.133-0.041-0.195-0.041-0.061-0.061-0.102-0.082-0.154-0.082-0.102 0-0.174-0.020-0.215-0.020-0.041-0.041-0.143-0.041-0.195-0.082-0.051-0.020-0.123-0.072-0.215-0.072-0.031-0.020-0.092-0.041-0.133-0.041-0.113-0.061-0.184-0.061-0.266-0.082-0.051-0.041-0.102-0.041-0.164-0.061-0.092-0.041-0.133-0.041-0.184-0.082-0.051 0-0.174-0.031-0.174-0.031-0.092-0.041-0.164-0.061-0.246-0.102-0.051-0.061-0.113-0.020-0.154-0.020-0.051-0.041-0.174-0.041-0.174-0.102-0.082 0-0.143 0-0.205-0.051-0.092 0-0.092-0.061-0.195-0.061-0.061 0-0.102-0.041-0.195-0.061-0.072 0-0.113-0.041-0.113-0.041-0.133-0.020-0.215-0.041-0.328-0.041 0-0.061-0.041-0.102-0.102-0.061-0.102-0.051-0.143-0.051-0.205-0.092-0.041 0-0.041 0-0.102-0.020-0.328-0.102-0.655-0.205-0.983-0.307l-0.031-0.041c-0.113 0-0.215-0.041-0.297-0.041 0-0.041-0.041-0.041-0.041-0.041-0.123 0-0.215-0.061-0.317-0.113-0.051 0-0.051 0-0.051 0-0.164-0.061-0.215-0.061-0.317-0.102-0.051 0-0.113 0-0.113-0.020-0.092-0.041-0.195-0.041-0.256-0.102-0.092 0-0.092 0-0.133-0.020-0.041 0-0.164-0.041-0.246-0.113 0 0-0.113 0-0.113-0.041-0.102 0-0.143-0.020-0.225-0.102-0.072 0-0.143 0-0.143 0-0.092-0.041-0.143-0.082-0.297-0.041-0.051-0.041-0.051-0.092-0.102-0.041-0.102-0.051-0.154-0.113-0.236-0.113 0-0.041-0.051-0.020-0.092-0.041-0.123-0.041-0.215-0.041-0.266-0.082 0-0.020-0.102-0.020-0.102-0.020-0.113-0.051-0.215-0.051-0.307-0.092 0 0-0.051 0-0.051-0.041-0.113-0.020-0.205-0.041-0.317-0.082-0.604-0.195-1.219-0.348-1.823-0.563-0.092-0.020-0.215-0.041-0.307-0.082h-0.061c-0.092-0.061-0.215-0.082-0.287-0.113h-0.041c-0.113-0.061-0.256-0.082-0.297-0.102-0.072 0-0.072 0-0.123-0.041-0.102-0.020-0.205-0.020-0.317-0.082-0.051 0-0.051-0.020-0.092-0.020-0.041-0.020-0.164-0.072-0.246-0.133 0 0-0.051 0.061-0.051 0.041-0.102-0.041-0.256-0.102-0.307-0.102-0.051-0.020-0.051-0.041-0.092-0.020-0.102-0.020-0.174-0.061-0.297-0.102 0 0.041 0-0.020-0.072-0.020-0.113 0-0.215-0.051-0.317-0.113 0 0 0 0-0.041 0-0.963-0.266-1.915-0.502-2.908-0.829-0.082-0.020-0.205-0.082-0.338-0.143-0.154 0-0.215-0.061-0.358-0.061v0c-0.113-0.041-0.246-0.041-0.358-0.072 0 0 0 0-0.051 0-0.092-0.102-0.205-0.102-0.287-0.164h-0.061c-0.113 0-0.215-0.061-0.307-0.123 0 0 0 0-0.051 0.061-19.958-5.652-40.192-9.984-60.457-12.984l-0.041 0.307c-24.064-3.604-48.66-5.489-73.697-5.489-0.020 0-0.092 0-0.123 0-0.051 0-0.072 0-0.133 0-273.572 0-495.401 221.85-495.401 495.432 0 273.654 221.88 495.462 495.534 495.462 137.431 0 261.714-56.033 351.447-146.412l97.802 97.772c3.85 3.85 7.025 2.56 7.025-2.898v-262.175c0-5.458-4.465-9.902-9.912-9.902l-262.42-0.031c-5.448 0-6.748 3.154-2.888 7.004l100.219 100.209c-71.864 72.52-171.366 117.555-281.272 117.555-218.604 0-396.472-177.828-396.472-396.411 0-218.552 177.807-396.37 396.339-396.37 20.316 0 40.274 1.536 59.761 4.495l0.020-0.020c27.679 4.147 54.426 11.223 79.913 20.808zM493.722 738.191h-59.433c-10.885 0-19.814-8.919-19.814-19.814v-355.912c0-10.906 8.919-19.814 19.814-19.814h355.543c10.885 0 19.814 8.899 19.814 19.814v59.433c0 10.895-8.919 19.825-19.814 19.825h-276.296v276.664c0 10.885-8.919 19.804-19.814 19.804zM843.53 223.836l83.241-54.436c19.149 29.348 35.021 60.436 47.452 92.713l-92.631 35.697c-10.127-26.102-22.917-50.893-38.062-73.974zM1006.94 466.586l-99.082-5.069c0.348-6.799 0.522-13.64 0.522-20.521 0-21.34-1.741-42.25-4.987-62.689l97.935-15.667c5.509 34.232 7.383 69.13 5.612 103.946zM725.883 107.346l53.729-83.62c0.348 0.266 0.666 0.461 1.014 0.727 0.061 0 0.102 0.020 0.174 0.041 0.051 0.041 0.051 0.041 0.092 0.102 1.69 1.065 3.328 2.15 4.987 3.267 0.061 0.020 0.123 0.041 0.164 0.082 0.051 0 0.051 0.041 0.102 0.061 0.072 0 0.072 0 0.072 0v0.051c0.082 0.082 0.236 0.143 0.276 0.205 0.072 0 0.133 0.061 0.174 0.061 0.051 0.031 0.102 0.092 0.154 0.174 0.102 0 0.143 0.041 0.143 0.082 0.061 0.041 0.164 0.092 0.215 0.154 0.051 0.041 0.102 0.041 0.164 0.102 0.051 0.020 0.082 0.061 0.154 0.061 0.041 0.051 0.102 0.092 0.205 0.154 0.051 0.020 0.051 0.061 0.154 0.123 0 0.020 0.123 0.061 0.174 0.092 0.041 0.041 0.082 0.041 0.143 0.102 0.123 0.061 0.143 0.102 0.143 0.102 0.123 0.061 0.174 0.072 0.174 0.113 0.102 0.061 0.133 0.102 0.205 0.123 0.041 0.020 0.102 0.061 0.102 0.123 0.113 0.051 0.113 0.092 0.205 0.092 0.072 0.061 0.102 0.123 0.102 0.143 0.113 0.020 0.184 0.082 0.215 0.113 0.051 0 0.102 0.082 0.164 0.102 0.041 0.061 0.102 0.082 0.195 0.102 0 0.020 0.123 0.072 0.164 0.133 0.041 0.020 0.113 0.061 0.164 0.102 0.051 0.061 0.092 0.061 0.143 0.102 0.061 0.041 0.154 0.041 0.215 0.092 0.051 0.061 0.092 0.082 0.092 0.123 0.051 0.020 0.164 0.082 0.215 0.082 0.041 0.041 0.082 0.051 0.082 0.113 0.113 0.082 0.215 0.102 0.266 0.143 0 0.041 0.031 0.061 0.102 0.061 0.041 0.051 0.113 0.113 0.215 0.154 0.031 0.020 0.031 0.102 0.092 0.102 0.113 0.061 0.164 0.072 0.215 0.174 0.061 0.041 0.102 0.061 0.102 0.102 0.041 0 0.164 0.061 0.195 0.113 0.061 0 0.113 0.061 0.113 0.082 0.113 0.020 0.205 0.082 0.246 0.123 0 0.061 0.051 0.061 0.123 0.082 0.041 0.010 0.133 0.072 0.205 0.133 0.041 0.041 0.041 0.041 0.092 0.102 0.072 0.041 0.164 0.061 0.205 0.113 0.061 0.082 0.061 0.082 0.061 0.082 0.614 0.43 1.219 0.809 1.894 1.219v0.020c0.102 0.102 0.205 0.133 0.246 0.246 0.051 0 0.051 0 0.113 0.041 0.041 0.041 0.133 0.061 0.195 0.143 0 0 0.041 0.031 0.041 0.092 0.113 0 0.154 0.082 0.266 0.143 0.061 0 0.061 0 0.092 0.051 0.072 0.041 0.174 0.082 0.215 0.143 0.072 0 0.113 0.061 0.164 0.061 0 0.041 0.102 0.082 0.143 0.195 0.072-0.061 0.113 0.041 0.113 0.041 0.061 0.041 0.164 0.082 0.246 0.123 0 0.051 0.061 0.051 0.102 0.113 0.051 0.041 0.102 0.082 0.215 0.164 0 0.020 0.051 0.061 0.102 0.082 0.072 0.051 0.102 0.113 0.205 0.113 0.072 0.061 0.072 0.082 0.113 0.102 0.051 0 0.154 0.061 0.195 0.092 0 0.061 0.123 0.123 0.123 0.123 0.041 0.041 0.154 0.082 0.195 0.143 0.051 0.041 0.051 0.051 0.102 0.051 0.061 0.061 0.164 0.123 0.266 0.164 0 0.061 0.051 0.061 0.051 0.102 0.113 0.031 0.154 0.092 0.256 0.154 0 0.041 0.041 0.061 0.113 0.082 0.082 0.020 0.133 0.092 0.205 0.113 0 0.041 0.041 0.082 0.092 0.102 0.051 0.041 0.133 0.082 0.205 0.143 0.051 0.020 0.102 0.072 0.102 0.092 0.041 0.041 0.154 0.102 0.215 0.164 0.061 0 0.102 0.041 0.164 0.041 0.031 0.041 0.092 0.154 0.154 0.195 0.051 0 0.092 0.061 0.154 0.061 0.041 0.061 0.102 0.113 0.205 0.154 0 0.020 0.061 0.041 0.113 0.041 0.041 0.102 0.082 0.123 0.205 0.184 0.051 0 0.051 0.072 0.082 0.072 0.061 0.061 0.113 0.102 0.215 0.143 0 0 0.102 0.041 0.102 0.082 0.061 0.051 0.102 0.113 0.205 0.154 0.072 0.041 0.102 0.041 0.102 0.041 0.266 0.225 0.522 0.42 0.829 0.635 0.082 0.041 0.154 0.092 0.215 0.154 0.051 0 0.092 0.041 0.133 0.061 0.072 0.041 0.123 0.102 0.164 0.164 0.061 0.010 0.123 0.072 0.164 0.072 0.041 0.041 0.092 0.123 0.154 0.143s0.102 0.061 0.143 0.102c0.041 0.010 0.113 0.072 0.215 0.133 0.051 0.041 0.092 0.061 0.092 0.102 0.123 0.051 0.123 0.072 0.174 0.113 0.113 0.041 0.154 0.061 0.215 0.123 0 0.020 0.102 0.020 0.143 0.082 0.051 0.041 0.051 0.072 0.164 0.133 0.051 0.061 0.092 0.102 0.133 0.123 0.051 0.041 0.123 0.092 0.164 0.154 0.051 0.020 0.102 0.061 0.174 0.102 0.031 0.020 0.082 0.041 0.133 0.102 0.072 0.051 0.102 0.051 0.164 0.072 0.041 0.082 0.123 0.143 0.164 0.164 0.051 0.041 0.164 0.082 0.215 0.113 0 0.061 0.092 0.123 0.092 0.164 0.123 0 0.154 0 0.154 0.061 0.051 0.082 0.164 0.082 0.215 0.154 0.051 0.061 0.092 0.082 0.092 0.102 0.113 0.061 0.164 0.082 0.205 0.133 0.072 0.041 0.102 0.061 0.164 0.143 0.051 0.061 0.123 0.082 0.215 0.123 0 0.020 0.051 0.072 0.092 0.072 0.072 0.061 0.154 0.102 0.205 0.143 0.061 0.041 0.061 0.082 0.092 0.082 0.072 0.092 0.113 0.092 0.215 0.133 0.051 0.061 0.051 0.123 0.092 0.123 0.061 0.061 0.174 0.092 0.215 0.133 0.051 0.041 0.123 0.061 0.164 0.102 0.051 0.020 0.123 0.082 0.215 0.143 0 0 0.051 0.092 0.051 0.113 0.113 0.020 0.205 0.061 0.236 0.164 0 0.020 0.051 0.051 0.123 0.020 0.051 0.092 0.133 0.154 0.195 0.215 0.061 0.041 0.061 0.041 0.123 0.041 0.031 0.072 0.143 0.092 0.225 0.225 0.481 0.328 0.87 0.635 1.331 0.932 0.113 0.092 0.215 0.215 0.317 0.266 0.092 0.061 0.205 0.133 0.287 0.225 0 0.020 0 0.020 0 0.020 0.113 0.061 0.215 0.154 0.297 0.215l0.061 0.061c0.102 0.041 0.164 0.082 0.297 0.143 0 0.051 0 0.051 0 0.051 0.113 0.082 0.215 0.164 0.276 0.215 0.041 0 0.041 0.041 0.041 0.041 0.102 0.031 0.195 0.154 0.297 0.195 0 0 0 0 0.051 0.041 0.061 0.082 0.215 0.133 0.215 0.215 0.061 0 0.061 0.041 0.102 0.061 0.061 0.061 0.143 0.123 0.256 0.154l0.041 0.020c0.102 0.123 0.205 0.205 0.256 0.236 0 0 0 0.010 0.041 0.051 0.102 0.061 0.154 0.102 0.266 0.143 0 0.041 0.051 0.061 0.051 0.061 0.041 0.051 0.205 0.154 0.246 0.225 0 0 0 0.041 0.051 0.041 0.102 0.061 0.205 0.133 0.236 0.195 0.072 0 0.072 0 0.072 0.041 0.092 0.082 0.154 0.143 0.297 0.225 0.102 0.082 0.205 0.143 0.297 0.225 0.092 0.123 0.205 0.164 0.307 0.276 16.558 12.667 32.092 26.266 46.612 40.591l-69.929 70.687c-20.060-19.886-41.892-37.335-65.393-52.429z" />
<glyph unicode="&#xe60a;" d="M223.662 53.34c65.28 14.080 88.914 71.014 92.795 116.48 4.925 57.631-40.909 106.24-88.965 102.4-32-2.56-44.37-53.514-15.995-72.315 60.805-40.325 12.165-70.4-13.435-72.315-30.894-2.324-49.889 2.703-72.858 29.041-12.923 14.817-32.287 46.438-16.824 91.587 17.695 51.661 60.099 92.385 110.674 106.291 44.8 12.308 90.143 1.516 127.703-30.382 96.379-81.869 61.143-197.222-4.332-278.426l-0.563-0.553c-13.988-13.998-13.988-36.68 0-50.668 7.004-7.004 16.169-10.496 25.334-10.496 9.175 0 18.34 3.502 25.334 10.496 0 0 226.836 226.826 226.98 226.97l48.302 41.82 213.76-134.4-25.6 157.44 135.68 28.16-156.242 122.88 93.399 93.399c43.725 43.715 66.437 101.53 64 162.806-2.355 59.443-28.119 116.644-72.54 161.055-44.401 44.401-101.601 70.164-161.044 72.53-61.256 2.447-119.101-20.285-162.816-64l-493.476-493.486c-2.007-2.007-3.697-4.209-5.13-6.533-25.375-25.528-45.281-56.883-57.201-91.689-19.814-57.836-8.663-116.849 30.597-161.905 39.823-45.691 97.157-68.116 152.463-56.187zM647.096 812.472c60.979 61 156.641 57.324 222.515-8.53 65.864-65.864 69.519-161.526 8.54-222.525l-69.478-69.478c-5.519 52.531-31.816 106.035-78.438 152.648-45.302 45.302-98.836 72.602-152.719 78.326l69.581 69.56zM626.862 329.82l-150.088-149.791c0.225 2.478 0.43 4.956 0.594 7.434 4.598 74.435-24.525 140.575-84.204 191.273-38.124 32.379-81.94 50.104-127.519 52.296l130.079 129.772c0 0.010 0.020 0.020 0.031 0.031v0c19.651 19.651 45.865 30.044 75.786 30.044 43.438 0 89.651-21.32 126.833-58.481 32.379-32.369 52.777-71.598 57.477-110.459 3.113-25.682 0.584-62.495-28.989-92.119z" />
<glyph unicode="&#xe900;" glyph-name="star-empty" d="M512 281.475l-176.89 25.704-79.11 160.291-79.108-160.291-176.892-25.704 128-124.769-30.216-176.176 158.216 83.179 158.216-83.179-30.217 176.176 128.001 124.769zM256 103.251l-111.731-58.74 21.338 124.415-90.393 88.111 124.92 18.152 55.866 113.198 55.868-113.198 124.918-18.152-90.394-88.111 21.339-124.415-111.731 58.74z" />
</font>
</defs>
</svg>
