<?xml  version="1.0" encoding="UTF-8"?>
<!DOCTYPE svg PUBLIC "-//W3C//DTD SVG 1.0//EN" "http://www.w3.org/TR/2001/REC-SVG-20010904/DTD/svg10.dtd" >
<svg xmlns="http://www.w3.org/2000/svg" >
<metadata>
<version>1.0</version>
<id><![CDATA[Serifa W01 Black]]></id>
<vendor>Monotype Imaging Inc.</vendor>
<credits>
<name>Fonts.com WebFonts</name>
<URL>http://webfonts.fonts.com</URL>
<role>Home of the Web fonts</role>
</credits>
<license>
<URL>http://webfonts.fonts.com/Legal</URL>
</license>
<copyright><![CDATA[Copyright 1990-2003 Bitstream Inc. All rights reserved.]]></copyright>
<trademark></trademark>
<licensee>
<name></name>
</licensee>
</metadata>
<defs >
<font horiz-adv-x="1235" id="975604bd-545e-4359-9304-a1bb16311287">
<font-face font-family="" panose-1="2 6 8 4 4 5 5 2 2 4" ascent="1956" descent="-485" units-per-em="2048" alphabetic="0">
</font-face>
<missing-glyph horiz-adv-x="0" />

<glyph unicode="&#xA;" />
<glyph unicode="&#xD;" horiz-adv-x="0" />
<glyph unicode=" " horiz-adv-x="602" />
<glyph unicode="!" horiz-adv-x="627" d="M479 0H143V340H479V0ZM451 455H174L106 1346H516L451 455Z"  />
<glyph unicode="&quot;" horiz-adv-x="713" d="M76 1438H295V877H76V1438ZM416 1438H639V877H416V1438Z"  />
<glyph unicode="#" horiz-adv-x="1575" d="M684 1466H934L795 1073H1030L1171 1466H1421L1282 1073H1552L1466 842H1198L1118 612H1395L1311 381H1036L895 -12H645L784 381H549L408 -12H158L297 381H23L109 612H379L461 842H178L264 1073H543L684 1466ZM707 842L625 610H870L952 842H707Z"  />
<glyph unicode="$" horiz-adv-x="1202" d="M127 449L422 448Q424 330 462 275T582 219Q645 219 683 252T721 340Q721 386 684 424T526 526Q509 536 474 554Q277 657 207 729Q158 780 132 844T106 983Q106 1147 206 1243T481 1344V1520H713V1337Q732 1334 754 1323T801 1294V1374H1055V926H768Q762 1037 723 1091T608 1145Q547 1145 512 1109T477 1008Q477 920 680 835L703 825Q945 724 1020 636T1096 399Q1096 212 998 107T723 2Q721 2 718 1T713 0V-195H481V6Q454 14 430 28T383 66V-29H127V449Z"  />
<glyph unicode="%" horiz-adv-x="1806" d="M516 -29H309L1292 1374H1499L516 -29ZM145 1012Q145 1189 231 1283T477 1378Q631 1378 719 1284T807 1026Q807 854 723 764T477 674Q318 674 232 762T145 1012ZM369 1028Q369 928 395 880T475 831Q529 831 555 879T582 1028Q582 1127 555 1177T475 1227Q422 1227 396 1177T369 1028ZM1008 324Q1008 502 1092 596T1337 690Q1492 690 1580 596T1669 338Q1669 166 1584 76T1337 -14Q1179 -14 1094 73T1008 324ZM1233 344Q1233 244 1259 196T1339 147Q1394 147 1420 195T1446 344Q1446 443 1420 493T1339 543Q1286 543 1260 493T1233 344Z"  />
<glyph unicode="&amp;" horiz-adv-x="1534" d="M961 90Q889 27 788 -4T547 -35Q307 -35 176 77T45 395Q45 528 115 618T326 758Q245 809 205 880T164 1040Q164 1200 276 1287T592 1374Q783 1374 891 1291T999 1061Q999 953 942 867T764 711L999 471Q1030 504 1044 540T1059 616H979V827H1458V616H1325Q1320 522 1287 445T1186 297L1260 242H1464V0H1047L961 90ZM793 262L526 543Q465 500 436 455T406 358Q406 285 459 236T592 186Q640 186 688 204T793 262ZM575 911Q640 950 671 991T702 1079Q702 1124 669 1154T584 1184Q534 1184 503 1154T471 1077Q471 1040 497 999T575 911Z"  />
<glyph unicode="&apos;" horiz-adv-x="371" d="M76 1438H295V877H76V1438Z"  />
<glyph unicode="(" horiz-adv-x="676" d="M610 -397H367Q234 -185 164 40T94 481Q94 684 163 909T369 1374H627Q514 1195 457 972T399 485Q399 226 451 6T610 -397Z"  />
<glyph unicode=")" horiz-adv-x="676" d="M84 -397Q190 -215 242 5T295 485Q295 750 239 973T70 1374H326Q462 1134 531 909T600 481Q600 265 531 40T328 -397H84Z"  />
<glyph unicode="*" horiz-adv-x="1024" d="M389 1346H643L596 1108L801 1225L879 985L653 956L815 788L610 641L512 852L406 641L201 788L371 954L145 985L219 1225L426 1114L389 1346Z"  />
<glyph unicode="+" horiz-adv-x="1706" d="M735 1221H973V727H1452V496H973V0H735V496H254V727H735V1221Z"  />
<glyph unicode="&#x2c;" horiz-adv-x="602" d="M256 0H135V342H471V-18L352 -303H129L256 0Z"  />
<glyph unicode="-" horiz-adv-x="680" d="M594 375H86V627H594V375Z"  />
<glyph unicode="." horiz-adv-x="602" d="M469 0H133V338H469V0Z"  />
<glyph unicode="/" horiz-adv-x="786" d="M225 -190H18L561 1374H768L225 -190Z"  />
<glyph unicode="0" horiz-adv-x="1202" d="M66 674Q66 1019 202 1196T602 1374Q866 1374 1001 1197T1137 674Q1137 328 1002 150T602 -29Q338 -29 202 149T66 674ZM459 674Q459 419 491 318T602 217Q679 217 711 316T743 674Q743 940 712 1039T602 1139Q523 1139 491 1038T459 674Z"  />
<glyph unicode="1" horiz-adv-x="1204" d="M1030 0H285V242H500V1001Q437 942 359 883T180 762V1075Q300 1155 381 1217T526 1341H883V242H1030V0Z"  />
<glyph unicode="2" horiz-adv-x="1202" d="M117 0V305Q165 349 254 428Q719 843 719 991Q719 1056 686 1096T600 1137Q538 1137 508 1086T475 926H111Q118 1155 241 1262T618 1370Q851 1370 979 1269T1108 983Q1108 856 1007 720T504 242H821V401H1116V0H117Z"  />
<glyph unicode="3" horiz-adv-x="1202" d="M92 383H460V377Q460 301 494 260T591 219Q655 219 688 260T722 381Q722 482 666 529T489 578L488 807Q494 807 504 806T519 805Q613 805 659 849T706 985Q706 1056 675 1095T587 1135Q532 1135 503 1091T474 963V954H105Q105 1157 234 1266T601 1376Q837 1376 967 1275T1097 991Q1097 861 1026 788T814 702V688Q966 671 1041 592T1117 371Q1117 171 991 71T613 -29Q356 -29 225 75T92 383Z"  />
<glyph unicode="4" horiz-adv-x="1202" d="M655 242V342H84V637L580 1346H1038V563H1163V342H1038V242H1163V0H489V242H655ZM655 563V1081L334 563H655Z"  />
<glyph unicode="5" horiz-adv-x="1202" d="M485 356Q487 284 513 248T588 211Q655 211 691 269T727 438Q727 543 694 601T600 659Q551 659 523 625T483 518H131V1346H1051V1114H485V778Q529 837 590 865T737 893Q917 893 1018 779T1120 459Q1120 216 988 93T596 -31Q357 -31 234 67T109 356H485Z"  />
<glyph unicode="6" horiz-adv-x="1202" d="M440 692Q468 800 539 854T723 909Q897 909 1005 784T1114 453Q1114 219 985 94T614 -31Q348 -31 220 127T92 614Q92 994 232 1179T659 1364Q864 1364 977 1273T1100 1010H745Q745 1071 712 1108T625 1145Q534 1145 487 1039T440 729V692ZM457 436Q457 320 490 264T590 207Q657 207 690 263T723 436Q723 552 690 610T590 668Q523 668 490 610T457 436Z"  />
<glyph unicode="7" horiz-adv-x="1202" d="M629 0H227Q339 283 465 561T733 1114H377V903H66V1346H1096V1065Q979 845 868 594T629 0Z"  />
<glyph unicode="8" horiz-adv-x="1202" d="M406 688V702Q262 735 193 806T123 991Q123 1173 252 1274T612 1376Q840 1376 972 1276T1104 1004Q1104 881 1037 809T821 702V688Q972 673 1047 594T1122 371Q1122 171 996 71T614 -29Q358 -29 231 70T104 371Q104 508 179 587T406 688ZM475 408Q475 313 510 264T614 215Q682 215 717 263T752 408Q752 503 717 551T614 600Q546 600 511 551T475 408ZM489 979Q489 900 520 860T612 819Q673 819 704 859T735 979Q735 1059 705 1099T612 1139Q551 1139 520 1099T489 979Z"  />
<glyph unicode="9" horiz-adv-x="1202" d="M762 645Q734 538 663 483T479 428Q305 428 197 553T88 885Q88 1118 217 1243T588 1368Q854 1368 982 1210T1110 723Q1110 343 970 158T543 -27Q338 -27 225 64T103 328H457Q457 266 490 230T578 193Q668 193 715 299T762 608V645ZM745 895Q745 1011 712 1068T612 1126Q545 1126 511 1068T477 895Q477 780 511 723T612 666Q679 666 712 722T745 895Z"  />
<glyph unicode=":" horiz-adv-x="602" d="M469 0H133V338H469V0ZM469 618H133V956H469V618Z"  />
<glyph unicode=";" horiz-adv-x="602" d="M471 618H135V956H471V618ZM256 0H135V342H471V-18L352 -303H129L256 0Z"  />
<glyph unicode="&lt;" horiz-adv-x="1706" d="M1442 1214V961L588 610L1442 262V8L264 494V727L1442 1214Z"  />
<glyph unicode="=" horiz-adv-x="1706" d="M254 950H1452V719H254V950ZM254 502H1452V272H254V502Z"  />
<glyph unicode="&gt;" horiz-adv-x="1706" d="M264 1214L1442 727V494L264 8V262L1118 610L264 961V1214Z"  />
<glyph unicode="?" horiz-adv-x="1016" d="M633 418H309V526Q309 659 430 773L440 782Q542 877 571 925T600 1024Q600 1082 573 1113T496 1145Q440 1145 411 1108T381 1001V981H35Q35 1170 156 1271T504 1372Q718 1372 842 1270T967 991Q967 900 931 825T817 676Q801 661 770 633Q633 509 633 422V418ZM639 0H297V338H639V0Z"  />
<glyph unicode="@" horiz-adv-x="2048" d="M1198 696Q1189 772 1148 812T1038 852Q935 852 857 731T778 444Q778 361 813 316T911 270Q995 270 1059 329T1147 487L1198 696ZM1161 262Q1105 180 1035 142T866 104Q703 104 619 191T535 449Q535 690 676 853T1026 1016Q1103 1016 1160 986T1255 893L1307 985H1513L1360 375Q1360 373 1359 369Q1356 351 1356 342Q1356 312 1372 298T1419 283Q1556 283 1659 426T1763 762Q1763 1001 1584 1152T1116 1303Q968 1303 842 1267T612 1157Q457 1047 373 883T289 526Q289 224 492 45T1036 -135Q1200 -135 1352 -88T1632 51L1729 -84Q1573 -201 1400 -259T1036 -317Q844 -317 682 -268T393 -123Q236 -1 159 158T82 520Q82 689 135 840T291 1118Q439 1301 650 1396T1118 1491Q1288 1491 1438 1445T1698 1313Q1834 1206 1901 1070T1968 764Q1968 597 1903 457T1712 217Q1643 161 1558 132T1382 102Q1276 102 1221 142T1161 262Z"  />
<glyph unicode="A" horiz-adv-x="1511" d="M14 0V242H94L532 1346H981L1417 242H1497V0H870V242H1012L963 389H483L434 242H575V0H14ZM877 606L725 1055L573 606H877Z"  />
<glyph unicode="B" horiz-adv-x="1337" d="M854 0H43V242H166V1114H43V1346H870Q1045 1346 1148 1253T1251 1004Q1251 874 1179 796T971 698V686Q1122 675 1198 598T1274 375Q1274 189 1168 95T854 0ZM555 242H688Q782 242 826 284T870 418Q870 501 824 544T690 588H555V242ZM555 799H678Q767 799 807 837T848 958Q848 1035 805 1074T680 1114H555V799Z"  />
<glyph unicode="C" horiz-adv-x="1448" d="M1041 842Q1036 977 969 1053T786 1130Q636 1130 557 1009T477 657Q477 443 549 331T762 219Q874 219 940 281T1018 461H1395Q1389 229 1226 100T776 -29Q438 -29 256 153T74 674Q74 1006 230 1190T670 1374Q812 1374 909 1331T1069 1196V1339H1372V842H1041Z"  />
<glyph unicode="D" horiz-adv-x="1542" d="M170 242V1114H47V1346H752Q1107 1346 1288 1172T1470 657Q1470 341 1300 171T813 0H47V242H170ZM719 242Q900 242 982 347T1065 684Q1065 901 978 1007T715 1114H559V242H719Z"  />
<glyph unicode="E" horiz-adv-x="1352" d="M170 242V1114H47V1346H1274V932H991V1114H559V795H674V940H907V436H674V578H559V242H981V442H1272V0H47V242H170Z"  />
<glyph unicode="F" horiz-adv-x="1284" d="M170 242V1114H47V1346H1274V899H991V1114H559V766H674V903H907V397H674V547H559V242H715V0H47V242H170Z"  />
<glyph unicode="G" horiz-adv-x="1581" d="M948 467V707H1532V467H1430V0H1118V145Q1064 57 969 14T733 -29Q434 -29 253 161T72 670Q72 1001 239 1188T702 1376Q839 1376 936 1333T1108 1196V1346H1411V862H1084Q1074 986 1000 1059T813 1133Q655 1133 564 1005T473 651Q473 435 556 323T801 211Q930 211 1005 275T1100 467H948Z"  />
<glyph unicode="H" horiz-adv-x="1575" d="M47 0V242H170V1114H47V1346H702V1114H559V807H1014V1114H872V1346H1526V1114H1403V242H1526V0H872V242H1014V569H559V242H702V0H47Z"  />
<glyph unicode="I" horiz-adv-x="729" d="M170 242V1114H47V1346H682V1114H559V242H682V0H47V242H170Z"  />
<glyph unicode="J" horiz-adv-x="1147" d="M377 1114V1346H1112V1114H971V395Q971 185 856 78T514 -29Q270 -29 156 76T41 403Q41 430 41 443T44 469H403V420Q403 303 424 260T500 217Q543 217 562 245T582 338V1114H377Z"  />
<glyph unicode="K" horiz-adv-x="1438" d="M172 242V1114H49V1346H672V1114H561V750L891 1114H799V1346H1419V1114H1307L930 729L1356 242H1434V0H805V242H911L561 686V242H670V0H45V242H172Z"  />
<glyph unicode="L" horiz-adv-x="1241" d="M168 242V1114H45V1346H741V1114H557V242H858V514H1174V0H45V242H168Z"  />
<glyph unicode="M" horiz-adv-x="1929" d="M582 0H51V242H170V1114H55V1346H733L961 387L1204 1346H1876V1114H1757V242H1876V0H1290V242H1411V1114L1108 0H762L467 1114V242H582V0Z"  />
<glyph unicode="N" horiz-adv-x="1593" d="M625 0H49V242H176V1114H57V1346H688L1110 446V1114H975V1346H1536V1114H1423V0H950L485 975V242H625V0Z"  />
<glyph unicode="O" horiz-adv-x="1575" d="M74 674Q74 1002 263 1188T786 1374Q1121 1374 1311 1188T1501 674Q1501 346 1311 159T786 -29Q453 -29 264 158T74 674ZM786 217Q946 217 1022 327T1098 672Q1098 914 1023 1026T786 1139Q626 1139 552 1027T477 672Q477 437 552 327T786 217Z"  />
<glyph unicode="P" horiz-adv-x="1325" d="M170 242V1114H47V1346H778Q1017 1346 1142 1237T1268 922Q1268 690 1151 585T774 479Q735 479 620 485Q581 486 559 487V242H721V0H47V242H170ZM559 723H694Q791 723 835 770T879 922Q879 1017 833 1066T698 1116H559V723Z"  />
<glyph unicode="Q" horiz-adv-x="1577" d="M786 217Q946 217 1022 327T1098 672Q1098 914 1023 1026T786 1139Q626 1139 552 1027T477 672Q477 437 552 327T786 217ZM1536 0H1192Q1044 -15 943 -23T784 -31Q454 -31 264 158T74 674Q74 1002 263 1188T786 1374Q951 1374 1077 1332T1296 1202Q1394 1111 1448 980T1503 707Q1503 546 1440 428T1241 217Q1284 225 1329 229T1427 233H1536V0Z"  />
<glyph unicode="R" horiz-adv-x="1401" d="M954 649Q1047 649 1105 615T1188 514L1282 242H1399V0H961L817 428Q799 485 757 513T649 541H559V242H702V0H47V242H170V1114H47V1346H838Q1048 1346 1161 1251T1274 981Q1274 828 1191 745T954 662V649ZM559 772H690Q783 772 826 814T870 946Q870 1028 824 1071T692 1114H559V772Z"  />
<glyph unicode="S" horiz-adv-x="1223" d="M344 123V0H43V463H369V451Q369 332 425 274T596 215Q684 215 737 253T791 352Q791 434 605 503L592 508Q534 529 436 565Q246 633 207 659Q117 720 80 791T43 973Q43 1161 169 1267T518 1374Q636 1374 718 1337T846 1225V1346H1135V930H834V944Q834 1042 776 1092T604 1143Q521 1143 472 1107T422 1012Q422 929 656 854Q684 845 700 840Q832 796 899 769T999 721Q1096 657 1137 582T1178 391Q1178 195 1049 83T690 -29Q568 -29 485 7T344 123Z"  />
<glyph unicode="T" horiz-adv-x="1448" d="M535 242V1114H362V854H63V1346H1391V854H1094V1114H924V242H1075V0H369V242H535Z"  />
<glyph unicode="U" horiz-adv-x="1524" d="M61 1114V1346H690V1114H567V461Q567 333 618 278T788 223Q907 223 959 278T1012 461V1114H879V1346H1456V1114H1354V465Q1354 209 1212 90T762 -29Q455 -29 313 90T170 465V1114H61Z"  />
<glyph unicode="V" horiz-adv-x="1526" d="M14 1114V1346H670V1114H516L795 340L1065 1114H911V1346H1511V1114H1415L969 0H545L119 1114H14Z"  />
<glyph unicode="W" horiz-adv-x="1991" d="M25 1114V1346H614V1114H465L614 379L825 1346H1231L1434 379L1587 1114H1440V1346H1968V1114H1890L1618 0H1180L999 889L807 0H369L100 1114H25Z"  />
<glyph unicode="X" horiz-adv-x="1532" d="M25 0V242H106L535 692L137 1114H51V1346H729V1114H582L805 844L1024 1114H877V1346H1491V1114H1407L1008 688L1425 242H1507V0H817V242H975L727 524L492 242H651V0H25Z"  />
<glyph unicode="Y" horiz-adv-x="1432" d="M14 1114V1346H680V1114H528L743 752L965 1114H813V1346H1417V1114H1331L905 483V242H1079V0H344V242H518V481L98 1114H14Z"  />
<glyph unicode="Z" horiz-adv-x="1364" d="M1282 0H63V295L807 1114H391V893H90V1346H1266V1063L522 242H979V469H1282V0Z"  />
<glyph unicode="[" horiz-adv-x="676" d="M602 -371H143V1346H602V1137H449V-154H602V-371Z"  />
<glyph unicode="\" horiz-adv-x="786" d="M225 1374L768 -193H561L18 1374H225Z"  />
<glyph unicode="]" horiz-adv-x="676" d="M80 -371V-162H233V1128H80V1346H539V-371H80Z"  />
<glyph unicode="^" horiz-adv-x="2048" d="M879 1462H1167L1632 899H1368L1024 1241L678 899H414L879 1462Z"  />
<glyph unicode="_" horiz-adv-x="1024" d="M0 -244H1024V-483H0V-244Z"  />
<glyph unicode="`" horiz-adv-x="1024" d="M207 1487H494L686 1118H532L207 1487Z"  />
<glyph unicode="a" d="M735 137Q681 55 594 14T387 -27Q229 -27 133 56T37 274Q37 431 160 523T494 616H711V702Q711 753 678 779T580 805Q512 805 475 771T432 668H86Q95 839 213 923T563 1008Q832 1008 961 918T1090 641V227H1206V0H735V137ZM711 426H600Q508 426 455 392T401 301Q401 251 435 225T532 199Q608 199 656 260T711 426Z"  />
<glyph unicode="b" horiz-adv-x="1360" d="M172 227V1124H57V1346H551V840Q609 925 688 964T883 1004Q1081 1004 1190 875T1300 510Q1300 243 1193 108T872 -27Q758 -27 671 19T520 160V0H66V227H172ZM532 494Q532 367 580 303T721 238Q813 238 860 302T907 494Q907 621 860 685T721 750Q628 750 580 685T532 494Z"  />
<glyph unicode="c" horiz-adv-x="1130" d="M776 592Q769 675 732 713T623 752Q538 752 495 685T451 485Q451 346 491 283T618 219Q687 219 725 255T772 364L1087 365Q1081 170 958 72T594 -27Q334 -27 196 111T57 510Q57 731 182 867T508 1004Q609 1004 684 966T801 858V981H1079V592H776Z"  />
<glyph unicode="d" horiz-adv-x="1319" d="M838 160Q774 66 687 20T485 -27Q272 -27 165 108T57 510Q57 745 167 874T475 1004Q590 1004 669 965T807 840V1124H694V1346H1186V227H1292V0H838V160ZM451 494Q451 367 497 303T637 238Q730 238 777 302T825 494Q825 619 777 684T637 750Q544 750 498 686T451 494Z"  />
<glyph unicode="e" horiz-adv-x="1141" d="M705 297H1055Q1032 141 915 58T600 -25Q348 -25 203 114T57 494Q57 726 199 866T575 1006Q815 1006 947 870T1079 487Q1079 462 1076 408L1075 401H428V395Q428 312 467 268T582 223Q622 223 653 242T705 297ZM428 594H720Q718 679 680 725T575 772Q509 772 473 728T428 594Z"  />
<glyph unicode="f" horiz-adv-x="770" d="M184 227V758H55V981H184V1118Q184 1268 285 1349T575 1430Q624 1430 680 1424T799 1405V1170Q764 1175 741 1177T700 1180Q636 1180 600 1152T563 1073V981H739V758H563V227H723V0H68V227H184Z"  />
<glyph unicode="g" horiz-adv-x="1331" d="M442 510Q442 382 489 317T629 252Q721 252 769 317T817 510Q817 637 769 702T629 768Q537 768 490 703T442 510ZM838 981H1298V756H1186V86Q1186 -171 1060 -278T635 -385Q391 -385 271 -304T139 -53L516 -54Q526 -106 560 -132T655 -158Q746 -158 792 -109T838 39V184Q764 94 681 52T489 10Q277 10 167 140T57 524Q57 756 168 882T483 1008Q610 1008 698 958T838 809V981Z"  />
<glyph unicode="h" horiz-adv-x="1360" d="M57 0V227H172V1124H57V1346H551V791Q580 900 659 953T877 1006Q1048 1006 1131 920T1214 657V227H1327V0H739V227H836V575Q836 669 805 709T702 750Q626 750 589 704T551 563V227H645V0H57Z"  />
<glyph unicode="i" horiz-adv-x="717" d="M178 227V758H66V981H557V227H666V0H72V227H178ZM557 1075H186V1393H557V1075Z"  />
<glyph unicode="j" horiz-adv-x="696" d="M551 1075H180V1393H551V1075ZM57 758V981H551V-133Q551 -263 474 -323T231 -383Q178 -383 128 -378T27 -362V-125Q49 -131 66 -134T96 -137Q133 -137 152 -114T172 -47V758H57Z"  />
<glyph unicode="k" horiz-adv-x="1366" d="M172 227V1124H57V1346H551V582L823 758H666V981H1276V758H1178L963 623L1208 227H1303V0H727V227H834L705 428L551 313V227H657V0H66V227H172Z"  />
<glyph unicode="l" horiz-adv-x="707" d="M166 227V1124H51V1346H545V227H651V0H59V227H166Z"  />
<glyph unicode="m" horiz-adv-x="2003" d="M57 0V227H172V754H57V981H516V786Q562 897 645 950T856 1004Q975 1004 1055 962T1180 834Q1230 919 1313 962T1509 1006Q1686 1006 1772 920T1858 653V227H1964V0H1376V227H1464V571Q1464 667 1434 705T1331 743Q1263 743 1231 699T1198 557V227H1286V0H729V227H819V571Q819 662 789 702T692 743Q619 743 585 699T551 557V227H645V0H57Z"  />
<glyph unicode="n" horiz-adv-x="1360" d="M57 0V227H172V758H57V981H514V791Q566 902 654 954T877 1006Q1048 1006 1131 920T1214 657V227H1327V0H739V227H836V575Q836 669 805 709T702 750Q626 750 589 704T551 563V227H645V0H57Z"  />
<glyph unicode="o" horiz-adv-x="1231" d="M57 489Q57 722 209 864T614 1006Q867 1006 1019 864T1171 489Q1171 257 1019 116T614 -25Q362 -25 210 116T57 489ZM453 496Q453 354 492 286T614 217Q697 217 736 285T776 496Q776 637 737 704T614 772Q532 772 493 705T453 496Z"  />
<glyph unicode="p" horiz-adv-x="1358" d="M520 821Q583 915 670 960T872 1006Q1086 1006 1193 872T1300 471Q1300 236 1190 106T883 -25Q768 -25 689 14T551 139V-137H664V-360H53V-137H172V752H66V979H520V821ZM907 485Q907 612 860 676T721 741Q628 741 580 677T532 485Q532 360 580 296T721 231Q814 231 860 295T907 485Z"  />
<glyph unicode="q" horiz-adv-x="1358" d="M840 821V979H1294V752H1188V-137H1305V-360H694V-137H809V139Q751 54 672 15T477 -25Q280 -25 170 105T59 471Q59 738 166 872T487 1006Q605 1006 691 961T840 821ZM451 485Q451 359 498 295T639 231Q731 231 778 295T825 485Q825 612 778 676T639 741Q546 741 499 677T451 485Z"  />
<glyph unicode="r" horiz-adv-x="946" d="M174 227V758H59V981H553V778Q596 892 664 949T825 1006Q842 1006 862 1004T907 995V664Q868 672 838 676T780 680Q670 680 612 624T553 461V227H659V0H68V227H174Z"  />
<glyph unicode="s" horiz-adv-x="979" d="M317 102V0H53V350H338Q339 263 375 219T481 174Q530 174 563 201T596 266Q596 344 415 384Q389 390 375 393Q171 438 105 502T39 692Q39 836 131 921T379 1006Q475 1006 544 972T647 874V981H899V655H629Q621 732 584 769T477 807Q435 807 408 786T381 733Q381 667 539 627Q567 620 582 616Q804 560 871 493T938 297Q938 149 844 62T588 -25Q495 -25 429 6T317 102Z"  />
<glyph unicode="t" horiz-adv-x="944" d="M172 752H57V973H172V1159L551 1284V973H780V752H551V285Q551 245 564 225T604 205Q637 205 651 237T666 346V365H864Q864 356 865 341T866 317Q866 139 782 57T514 -25Q348 -25 260 49T172 262V752Z"  />
<glyph unicode="u" horiz-adv-x="1356" d="M1190 981V223H1303V0H846V190Q793 79 706 27T483 -25Q312 -25 230 60T147 324V754H33V981H526V406Q526 310 558 272T668 233Q739 233 775 279T811 418V754H715V981H1190Z"  />
<glyph unicode="v" horiz-adv-x="1200" d="M14 758V981H565V758H471L625 260L782 758H682V981H1186V758H1128L825 0H367L76 758H14Z"  />
<glyph unicode="w" horiz-adv-x="1886" d="M25 758V981H571V758H467L580 276L754 981H1180L1348 276L1468 758H1364V981H1864V758H1788L1550 0H1090L942 637L791 0H328L96 758H25Z"  />
<glyph unicode="x" horiz-adv-x="1200" d="M25 0V227H80L348 508L109 758H47V981H582V758H504L639 616L768 758H690V981H1161V758H1100L854 512L1118 227H1176V0H631V227H735L569 403L410 227H512V0H25Z"  />
<glyph unicode="y" horiz-adv-x="1208" d="M14 758V981H573V758H481L637 328L795 758H690V981H1194V758H1126L682 -215Q637 -310 575 -346T397 -383Q350 -383 300 -378T195 -362V-113Q249 -122 278 -125T326 -129Q381 -129 410 -101T446 -16L84 758H14Z"  />
<glyph unicode="z" horiz-adv-x="1018" d="M985 0H39V264L567 758H330V668H57V981H979V721L449 227H711V334H985V0Z"  />
<glyph unicode="{" horiz-adv-x="1024" d="M893 1477V1235Q886 1235 872 1236T852 1237Q754 1237 720 1202T686 1055V815Q686 675 640 615T475 530Q595 506 640 448T686 248V6Q686 -104 719 -139T850 -174Q857 -174 871 -173T893 -172V-414Q878 -414 851 -415T811 -416Q703 -416 632 -404T512 -367Q453 -335 430 -279T406 -86V170Q406 303 357 357T188 412Q184 412 171 411T152 410V651Q158 651 170 650T188 649Q306 649 356 704T406 893V1147Q406 1283 430 1340T512 1430Q560 1455 632 1467T813 1479Q825 1479 851 1478T893 1477Z"  />
<glyph unicode="|" horiz-adv-x="1024" d="M393 1565H633V-483H393V1565Z"  />
<glyph unicode="}" horiz-adv-x="1024" d="M133 1477Q148 1477 174 1478T213 1479Q321 1479 393 1467T514 1430Q572 1398 596 1341T621 1147V893Q621 759 670 704T838 649Q844 649 856 650T874 651V410Q868 410 856 411T838 412Q719 412 670 357T621 170V-86Q621 -223 597 -280T514 -369Q469 -393 401 -404T223 -416Q209 -416 179 -415T133 -414V-172Q142 -172 156 -173T176 -174Q273 -174 306 -140T340 6V248Q340 388 386 447T551 530Q431 555 386 614T340 815V1055Q340 1166 307 1201T180 1237Q173 1237 158 1236T133 1235V1477Z"  />
<glyph unicode="~" horiz-adv-x="1706" d="M1530 819V565Q1429 496 1336 462T1153 428Q1108 428 1064 435T981 457Q968 461 943 470Q688 559 561 559Q477 559 386 522T178 401V655Q290 728 385 763T565 799Q628 799 691 787T861 741Q877 736 912 724Q1071 668 1159 668Q1243 668 1332 704T1530 819Z"  />
<glyph unicode="&#xA0;" horiz-adv-x="1204" />
<glyph unicode="&#xA1;" horiz-adv-x="627" d="M145 1346H481V1008H145V1346ZM174 893H451L518 0H109L174 893Z"  />
<glyph unicode="&#xA2;" horiz-adv-x="1202" d="M807 616Q799 701 763 739T655 778Q570 778 527 711T483 512Q483 373 523 310T651 246Q719 246 756 280T803 389H1120Q1117 219 1020 124T735 10V-164H526V4Q316 26 203 163T90 535Q90 752 207 884T524 1028V1210H745V991Q788 967 817 941T864 885V1008H1112V616H807Z"  />
<glyph unicode="&#xA3;" horiz-adv-x="1202" d="M78 0V242H211V612H72V831H211V1004Q211 1183 335 1277T696 1372Q927 1372 1045 1286T1163 1030Q1163 1010 1163 1000T1161 981H813V997Q813 1077 784 1116T694 1155Q640 1155 614 1127T588 1040V831H770V612H588V242H813V446H1143V0H78Z"  />
<glyph unicode="&#xA4;" horiz-adv-x="1202" d="M1165 387Q1143 171 1030 71T692 -29Q482 -29 350 98T182 465H23L61 608H168Q168 618 167 640T166 674V725H23L59 868H178Q210 1116 326 1245T635 1374Q715 1374 776 1340T866 1247V1339H1149V952H829Q829 1041 800 1085T711 1130Q648 1130 612 1064T565 869L930 868L893 725H559V608H868L829 465H565Q574 343 607 281T696 219Q746 219 771 254T813 387H1165Z"  />
<glyph unicode="&#xA5;" horiz-adv-x="1329" d="M305 0V242H479V481L473 494H66V637H381L295 774H66V918H205L80 1114H-4V1346H612V1114H461L680 723L907 1114H756V1346H1335V1114H1249L1124 918H1262V774H1030L942 637H1262V494H850L844 483V242H1016V0H305Z"  />
<glyph unicode="&#xA6;" horiz-adv-x="1024" d="M393 1432H633V674H393V1432ZM393 408H633V-350H393V408Z"  />
<glyph unicode="&#xA7;" horiz-adv-x="1024" d="M53 115H393V94Q393 36 426 5T520 -27Q570 -27 598 -4T627 59Q627 96 592 125T469 190Q441 202 388 223Q37 362 37 537Q37 620 79 681T211 788Q136 824 99 884T61 1030Q61 1191 182 1282T516 1374Q732 1374 848 1285T968 1028H637Q637 1093 604 1126T506 1159Q462 1159 436 1135T410 1071Q410 1007 554 952Q581 942 596 936Q850 835 917 768T985 596Q985 515 944 458T819 369Q901 324 939 263T977 113Q977 -61 855 -154T508 -248Q289 -248 180 -161T53 115ZM406 737Q356 709 334 678T311 608Q311 579 325 556T365 522L598 416Q644 447 667 481T690 553Q690 584 674 606T625 643L406 737Z"  />
<glyph unicode="&#xA8;" horiz-adv-x="1024" d="M205 1167V1438H455V1167H205ZM567 1167V1438H819V1167H567Z"  />
<glyph unicode="&#xA9;" horiz-adv-x="1706" d="M852 1485Q1006 1485 1141 1429T1384 1266Q1490 1160 1544 1026T1599 737Q1599 584 1545 450T1386 213Q1277 105 1139 48T852 -10Q704 -10 569 47T326 211Q219 318 163 452T106 737Q106 885 163 1022T328 1268Q433 1374 566 1429T852 1485ZM854 1350Q728 1350 619 1305T424 1171Q336 1082 289 970T242 737Q242 618 289 507T424 307Q511 220 622 174T854 127Q975 127 1088 174T1290 309Q1376 393 1420 502T1464 737Q1464 862 1419 972T1288 1169Q1200 1258 1090 1304T854 1350ZM1221 891H1008Q1001 958 961 995T852 1032Q769 1032 723 955T676 739Q676 599 723 527T862 455Q929 455 968 495T1014 610H1229Q1223 467 1122 380T858 293Q668 293 557 410T446 731Q446 938 557 1060T856 1182Q1013 1182 1113 1102T1221 891Z"  />
<glyph unicode="&#xAA;" horiz-adv-x="926" d="M551 756Q510 698 446 670T291 641Q173 641 101 699T29 852Q29 961 121 1026T371 1092H532V1151Q532 1187 508 1205T434 1223Q384 1223 356 1199T324 1126H66Q72 1246 160 1305T422 1364Q625 1364 721 1302T817 1108V819H905V659H551V756ZM532 958H451Q381 958 341 935T301 870Q301 836 326 818T399 799Q456 799 492 842T532 958Z"  />
<glyph unicode="&#xAB;" horiz-adv-x="1120" d="M600 90H360L186 506L360 913H600L426 506L600 90ZM977 90H737L563 506L737 913H977L803 506L977 90Z"  />
<glyph unicode="&#xAC;" horiz-adv-x="1706" d="M254 866H1452V365H1223V639H254V866Z"  />
<glyph unicode="&#xAD;" horiz-adv-x="680" d="M594 375H86V627H594V375Z"  />
<glyph unicode="&#xAE;" horiz-adv-x="1706" d="M852 1485Q1008 1485 1146 1428T1391 1260Q1492 1156 1545 1022T1599 737Q1599 582 1543 446T1378 207Q1269 102 1133 46T852 -10Q701 -10 565 48T322 217Q217 325 162 458T106 737Q106 888 165 1027T334 1274Q439 1378 571 1431T852 1485ZM854 1350Q730 1350 622 1306T428 1178Q338 1088 291 975T244 737Q244 616 288 508T418 313Q505 223 617 175T852 127Q973 127 1084 172T1284 303Q1372 388 1418 499T1464 737Q1464 861 1420 970T1292 1165Q1203 1256 1092 1303T854 1350ZM537 1163H866Q1040 1163 1130 1103T1221 926Q1221 845 1175 787T1047 705L1229 344H981L827 670H762V344H537V1163ZM762 1022V803H842Q916 803 952 829T989 909Q989 968 951 995T829 1022H762Z"  />
<glyph unicode="&#xAF;" horiz-adv-x="1024" d="M205 1219V1386H819V1219H205Z"  />
<glyph unicode="&#xB0;" horiz-adv-x="674" d="M338 1466Q467 1466 558 1375T649 1155Q649 1027 558 936T336 844Q207 844 117 934T27 1155Q27 1286 117 1376T338 1466ZM338 1321Q269 1321 221 1273T172 1157Q172 1087 220 1039T338 991Q406 991 454 1040T502 1157Q502 1225 454 1273T338 1321Z"  />
<glyph unicode="&#xB1;" horiz-adv-x="1706" d="M735 1241H973V922H1452V690H973V371H735V690H254V922H735V1241ZM254 213H1452V-18H254V213Z"  />
<glyph unicode="&#xB2;" horiz-adv-x="793" d="M78 539V721Q111 748 172 798Q475 1046 475 1133Q475 1172 453 1196T395 1221Q355 1221 335 1190T313 1094H74Q79 1232 159 1296T408 1360Q561 1360 646 1299T731 1128Q731 1053 665 972T332 684H543V780H737V539H78Z"  />
<glyph unicode="&#xB3;" horiz-adv-x="793" d="M61 768H305V764Q305 719 327 695T391 670Q433 670 455 695T477 768Q477 828 440 856T324 885V1022H344Q406 1022 436 1049T467 1130Q467 1172 446 1195T387 1219Q351 1219 332 1193T313 1116V1112H70Q70 1233 155 1298T397 1364Q554 1364 639 1304T725 1133Q725 1055 678 1012T539 961V952Q638 942 687 895T737 762Q737 642 654 582T406 522Q235 522 148 584T61 768Z"  />
<glyph unicode="&#xB4;" horiz-adv-x="1024" d="M817 1489L492 1118H338L530 1489H817Z"  />
<glyph unicode="&#xB5;" horiz-adv-x="1315" d="M193 1090H551L471 561Q465 520 462 484T459 418Q459 333 494 291T602 248Q690 248 740 316T815 537L903 1090H1260L1085 0H764L782 125Q742 50 693 17T573 -16Q514 -16 467 15T389 104L307 -428H-45L193 1090Z"  />
<glyph unicode="&#xB6;" horiz-adv-x="1024" d="M997 1479V1356H891V0H715V1356H565V0H391V784Q227 790 128 885T29 1130Q29 1288 135 1383T418 1479H997Z"  />
<glyph unicode="&#xB7;" horiz-adv-x="602" d="M125 672Q125 745 176 795T301 846Q374 846 424 796T475 672Q475 598 425 547T301 496Q227 496 176 547T125 672Z"  />
<glyph unicode="&#xB8;" horiz-adv-x="1024" d="M221 -438V-301Q301 -323 370 -334T492 -346Q535 -346 556 -329T578 -274Q578 -242 549 -227T459 -211Q438 -211 426 -211T404 -213L403 0H518V-84H537Q648 -84 707 -133T766 -276Q766 -376 700 -430T512 -485Q454 -485 382 -474T221 -438Z"  />
<glyph unicode="&#xB9;" horiz-adv-x="795" d="M680 539H188V684H330V1139Q290 1105 238 1070T119 995V1184Q190 1226 245 1264T348 1343H582V684H680V539Z"  />
<glyph unicode="&#xBA;" horiz-adv-x="924" d="M43 1001Q43 1164 157 1264T461 1364Q650 1364 764 1265T879 1001Q879 839 765 741T461 643Q271 643 157 741T43 1001ZM340 1006Q340 906 369 859T461 811Q522 811 552 858T582 1006Q582 1105 552 1152T461 1200Q399 1200 370 1153T340 1006Z"  />
<glyph unicode="&#xBB;" horiz-adv-x="1120" d="M541 911H778L952 496L778 88H541L715 496L541 911ZM164 911H403L575 496L403 88H164L338 496L164 911Z"  />
<glyph unicode="&#xBC;" horiz-adv-x="1858" d="M649 592H180V727H315V1153Q279 1122 232 1090T115 1018V1194Q188 1238 239 1273T332 1343H557V727H649V592ZM1257 1374H1440L608 -29H416L1257 1374ZM1513 135V193H1153V356L1464 754H1753V315H1833V193H1753V135H1833V0H1409V135H1513ZM1513 315V606L1311 315H1513Z"  />
<glyph unicode="&#xBD;" horiz-adv-x="1858" d="M649 592H180V727H315V1153Q279 1122 232 1090T115 1018V1194Q188 1238 239 1273T332 1343H557V727H649V592ZM1257 1374H1440L608 -29H416L1257 1374ZM1174 0V170Q1200 192 1250 231Q1552 471 1552 555Q1552 592 1532 614T1479 637Q1439 637 1420 608T1398 518H1170Q1174 647 1251 707T1489 768Q1636 768 1717 711T1798 551Q1798 426 1427 143L1417 135H1618V225H1802V0H1174Z"  />
<glyph unicode="&#xBE;" horiz-adv-x="1858" d="M57 807H290V803Q290 761 311 738T372 715Q412 715 433 738T454 805Q454 861 419 887T308 916V1044Q312 1044 318 1043T327 1042Q385 1042 414 1067T443 1143Q443 1183 424 1205T370 1227Q335 1227 317 1202T298 1130V1126H67Q67 1239 148 1300T378 1362Q528 1362 609 1306T691 1147Q691 1074 647 1034T513 985V977Q609 967 656 923T704 799Q704 688 624 632T386 575Q224 575 141 634T57 807ZM1256 1374H1439L607 -29H415L1256 1374ZM1512 135V193H1152V356L1463 754H1752V315H1832V193H1752V135H1832V0H1408V135H1512ZM1512 315V606L1310 315H1512Z"  />
<glyph unicode="&#xBF;" horiz-adv-x="1016" d="M360 1346H702V1008H360V1346ZM367 928H690V819Q690 686 569 573L559 563Q455 466 427 420T399 324Q399 266 426 235T504 203Q560 203 589 239T618 346V367H965Q965 177 844 75T496 -27Q282 -27 158 75T33 354Q33 445 68 520T182 670Q199 685 230 713Q367 836 367 924V928Z"  />
<glyph unicode="&#xC0;" horiz-adv-x="1511" d="M14 0V242H94L532 1346H981L1417 242H1497V0H870V242H1012L963 389H483L434 242H575V0H14ZM877 606L725 1055L573 606H877ZM451 1858H738L930 1489H776L451 1858Z"  />
<glyph unicode="&#xC1;" horiz-adv-x="1511" d="M14 0V242H94L532 1346H981L1417 242H1497V0H870V242H1012L963 389H483L434 242H575V0H14ZM877 606L725 1055L573 606H877ZM1061 1860L736 1489H582L774 1860H1061Z"  />
<glyph unicode="&#xC2;" horiz-adv-x="1511" d="M14 0V242H94L532 1346H981L1417 242H1497V0H870V242H1012L963 389H483L434 242H575V0H14ZM877 606L725 1055L573 606H877ZM434 1489L627 1858H883L1075 1489H922L756 1688L588 1489H434Z"  />
<glyph unicode="&#xC3;" horiz-adv-x="1511" d="M14 0V242H94L532 1346H981L1417 242H1497V0H870V242H1012L963 389H483L434 242H575V0H14ZM877 606L725 1055L573 606H877ZM1088 1815Q1058 1682 1005 1621T869 1559Q850 1559 832 1562T793 1571L701 1598Q678 1604 661 1607T633 1610Q600 1610 579 1592T543 1532H424Q452 1658 504 1718T639 1778Q658 1778 681 1775T729 1764L824 1737Q836 1733 850 1731T881 1729Q914 1729 936 1750T969 1815H1088Z"  />
<glyph unicode="&#xC4;" horiz-adv-x="1511" d="M14 0V242H94L532 1346H981L1417 242H1497V0H870V242H1012L963 389H483L434 242H575V0H14ZM877 606L725 1055L573 606H877ZM449 1538V1809H699V1538H449ZM811 1538V1809H1063V1538H811Z"  />
<glyph unicode="&#xC5;" horiz-adv-x="1511" d="M14 0V242H94L532 1346H981L1417 242H1497V0H870V242H1012L963 389H483L434 242H575V0H14ZM877 606L725 1055L573 606H877ZM641 1683Q641 1635 674 1602T756 1569Q803 1569 836 1602T870 1683Q870 1731 837 1764T756 1798Q708 1798 675 1765T641 1683ZM485 1683Q485 1798 563 1877T756 1956Q869 1956 948 1877T1028 1683Q1028 1570 949 1492T756 1413Q641 1413 563 1491T485 1683Z"  />
<glyph unicode="&#xC6;" horiz-adv-x="2036" d="M-18 0V242H66L571 1114H414V1346H1939V932H1655V1114H1225V795H1337V940H1571V436H1337V578H1225V242H1647V442H1937V0H760V242H909V385H485L403 242H510V0H-18ZM909 610V1116L618 610H909Z"  />
<glyph unicode="&#xC7;" horiz-adv-x="1448" d="M1041 842Q1036 977 969 1053T786 1130Q636 1130 557 1009T477 657Q477 443 549 331T762 219Q874 219 940 281T1018 461H1395Q1389 229 1226 100T776 -29Q438 -29 256 153T74 674Q74 1006 230 1190T670 1374Q812 1374 909 1331T1069 1196V1339H1372V842H1041ZM452 -438V-301Q532 -323 601 -334T723 -346Q766 -346 787 -329T809 -274Q809 -242 780 -227T690 -211Q669 -211 657 -211T635 -213L634 0H749V-84H768Q879 -84 938 -133T997 -276Q997 -376 931 -430T743 -485Q685 -485 613 -474T452 -438Z"  />
<glyph unicode="&#xC8;" horiz-adv-x="1352" d="M170 242V1114H47V1346H1274V932H991V1114H559V795H674V940H907V436H674V578H559V242H981V442H1272V0H47V242H170ZM371 1858H658L850 1489H696L371 1858Z"  />
<glyph unicode="&#xC9;" horiz-adv-x="1352" d="M170 242V1114H47V1346H1274V932H991V1114H559V795H674V940H907V436H674V578H559V242H981V442H1272V0H47V242H170ZM981 1860L656 1489H502L694 1860H981Z"  />
<glyph unicode="&#xCA;" horiz-adv-x="1352" d="M170 242V1114H47V1346H1274V932H991V1114H559V795H674V940H907V436H674V578H559V242H981V442H1272V0H47V242H170ZM354 1489L547 1858H803L995 1489H842L676 1688L508 1489H354Z"  />
<glyph unicode="&#xCB;" horiz-adv-x="1352" d="M170 242V1114H47V1346H1274V932H991V1114H559V795H674V940H907V436H674V578H559V242H981V442H1272V0H47V242H170ZM369 1538V1809H619V1538H369ZM731 1538V1809H983V1538H731Z"  />
<glyph unicode="&#xCC;" horiz-adv-x="729" d="M170 242V1114H47V1346H682V1114H559V242H682V0H47V242H170ZM61 1858H348L540 1489H386L61 1858Z"  />
<glyph unicode="&#xCD;" horiz-adv-x="729" d="M170 242V1114H47V1346H682V1114H559V242H682V0H47V242H170ZM671 1860L346 1489H192L384 1860H671Z"  />
<glyph unicode="&#xCE;" horiz-adv-x="729" d="M170 242V1114H47V1346H682V1114H559V242H682V0H47V242H170ZM44 1489L237 1858H493L685 1489H532L366 1688L198 1489H44Z"  />
<glyph unicode="&#xCF;" horiz-adv-x="729" d="M170 242V1114H47V1346H682V1114H559V242H682V0H47V242H170ZM59 1538V1809H309V1538H59ZM421 1538V1809H673V1538H421Z"  />
<glyph unicode="&#xD0;" horiz-adv-x="1563" d="M190 242V592H0V780H190V1114H66V1346H770Q1125 1346 1307 1172T1489 657Q1489 341 1319 171T831 0H66V242H190ZM739 242Q920 242 1001 347T1083 684Q1083 901 997 1007T735 1114H578V780H817V592H578V242H739Z"  />
<glyph unicode="&#xD1;" horiz-adv-x="1593" d="M625 0H49V242H176V1114H57V1346H688L1110 446V1114H975V1346H1536V1114H1423V0H950L485 975V242H625V0ZM1129 1815Q1099 1682 1046 1621T910 1559Q891 1559 873 1562T834 1571L742 1598Q719 1604 702 1607T674 1610Q641 1610 620 1592T584 1532H465Q493 1658 545 1718T680 1778Q699 1778 722 1775T770 1764L865 1737Q877 1733 891 1731T922 1729Q955 1729 977 1750T1010 1815H1129Z"  />
<glyph unicode="&#xD2;" horiz-adv-x="1575" d="M74 674Q74 1002 263 1188T786 1374Q1121 1374 1311 1188T1501 674Q1501 346 1311 159T786 -29Q453 -29 264 158T74 674ZM786 217Q946 217 1022 327T1098 672Q1098 914 1023 1026T786 1139Q626 1139 552 1027T477 672Q477 437 552 327T786 217ZM483 1858H770L962 1489H808L483 1858Z"  />
<glyph unicode="&#xD3;" horiz-adv-x="1575" d="M74 674Q74 1002 263 1188T786 1374Q1121 1374 1311 1188T1501 674Q1501 346 1311 159T786 -29Q453 -29 264 158T74 674ZM786 217Q946 217 1022 327T1098 672Q1098 914 1023 1026T786 1139Q626 1139 552 1027T477 672Q477 437 552 327T786 217ZM1093 1860L768 1489H614L806 1860H1093Z"  />
<glyph unicode="&#xD4;" horiz-adv-x="1575" d="M74 674Q74 1002 263 1188T786 1374Q1121 1374 1311 1188T1501 674Q1501 346 1311 159T786 -29Q453 -29 264 158T74 674ZM786 217Q946 217 1022 327T1098 672Q1098 914 1023 1026T786 1139Q626 1139 552 1027T477 672Q477 437 552 327T786 217ZM466 1489L659 1858H915L1107 1489H954L788 1688L620 1489H466Z"  />
<glyph unicode="&#xD5;" horiz-adv-x="1575" d="M74 674Q74 1002 263 1188T786 1374Q1121 1374 1311 1188T1501 674Q1501 346 1311 159T786 -29Q453 -29 264 158T74 674ZM786 217Q946 217 1022 327T1098 672Q1098 914 1023 1026T786 1139Q626 1139 552 1027T477 672Q477 437 552 327T786 217ZM1120 1815Q1090 1682 1037 1621T901 1559Q882 1559 864 1562T825 1571L733 1598Q710 1604 693 1607T665 1610Q632 1610 611 1592T575 1532H456Q484 1658 536 1718T671 1778Q690 1778 713 1775T761 1764L856 1737Q868 1733 882 1731T913 1729Q946 1729 968 1750T1001 1815H1120Z"  />
<glyph unicode="&#xD6;" horiz-adv-x="1575" d="M74 674Q74 1002 263 1188T786 1374Q1121 1374 1311 1188T1501 674Q1501 346 1311 159T786 -29Q453 -29 264 158T74 674ZM786 217Q946 217 1022 327T1098 672Q1098 914 1023 1026T786 1139Q626 1139 552 1027T477 672Q477 437 552 327T786 217ZM481 1538V1809H731V1538H481ZM843 1538V1809H1095V1538H843Z"  />
<glyph unicode="&#xD7;" horiz-adv-x="1706" d="M430 1214L870 774L1311 1214L1473 1053L1032 610L1473 170L1311 8L870 449L430 8L268 170L709 610L268 1053L430 1214Z"  />
<glyph unicode="&#xD8;" horiz-adv-x="1575" d="M1085 905L555 307Q592 256 650 231T786 205Q951 205 1029 319T1108 674Q1108 742 1103 798T1085 905ZM484 474L1008 1065Q975 1107 919 1129T786 1151Q621 1151 545 1037T469 674Q469 617 472 567T484 474ZM211 -80L90 29L233 193Q154 289 114 409T74 674Q74 1001 262 1187T782 1374Q906 1374 1009 1350T1196 1276L1325 1423L1452 1319L1323 1174Q1412 1073 1456 948T1501 674Q1501 344 1310 158T782 -29Q655 -29 549 -2T354 82L211 -80Z"  />
<glyph unicode="&#xD9;" horiz-adv-x="1524" d="M61 1114V1346H690V1114H567V461Q567 333 618 278T788 223Q907 223 959 278T1012 461V1114H879V1346H1456V1114H1354V465Q1354 209 1212 90T762 -29Q455 -29 313 90T170 465V1114H61ZM457 1858H744L936 1489H782L457 1858Z"  />
<glyph unicode="&#xDA;" horiz-adv-x="1524" d="M61 1114V1346H690V1114H567V461Q567 333 618 278T788 223Q907 223 959 278T1012 461V1114H879V1346H1456V1114H1354V465Q1354 209 1212 90T762 -29Q455 -29 313 90T170 465V1114H61ZM1067 1860L742 1489H588L780 1860H1067Z"  />
<glyph unicode="&#xDB;" horiz-adv-x="1524" d="M61 1114V1346H690V1114H567V461Q567 333 618 278T788 223Q907 223 959 278T1012 461V1114H879V1346H1456V1114H1354V465Q1354 209 1212 90T762 -29Q455 -29 313 90T170 465V1114H61ZM440 1489L633 1858H889L1081 1489H928L762 1688L594 1489H440Z"  />
<glyph unicode="&#xDC;" horiz-adv-x="1524" d="M61 1114V1346H690V1114H567V461Q567 333 618 278T788 223Q907 223 959 278T1012 461V1114H879V1346H1456V1114H1354V465Q1354 209 1212 90T762 -29Q455 -29 313 90T170 465V1114H61ZM455 1538V1809H705V1538H455ZM817 1538V1809H1069V1538H817Z"  />
<glyph unicode="&#xDD;" horiz-adv-x="1432" d="M14 1114V1346H680V1114H528L743 752L965 1114H813V1346H1417V1114H1331L905 483V242H1079V0H344V242H518V481L98 1114H14ZM1022 1860L697 1489H543L735 1860H1022Z"  />
<glyph unicode="&#xDE;" horiz-adv-x="1327" d="M170 242V1116H47V1346H559V1114H778Q1016 1114 1142 1022T1268 754Q1268 551 1145 464T729 377H717L559 379V242H721V0H47V242H170ZM559 618H694Q788 618 833 650T879 748Q879 810 833 842T698 874H559V618Z"  />
<glyph unicode="&#xDF;" horiz-adv-x="1337" d="M172 227V987Q172 1197 307 1305T707 1413Q961 1413 1086 1323T1212 1049Q1212 934 1152 864T944 741Q1120 721 1201 640T1282 401Q1282 192 1167 96T799 0H750H725V219Q809 219 850 272T891 432Q891 537 840 583T674 629H657L658 868Q743 872 782 914T821 1044Q821 1110 786 1147T688 1184Q621 1184 586 1145T551 1028V227H621V0H57V227H172Z"  />
<glyph unicode="&#xE0;" d="M735 137Q681 55 594 14T387 -27Q229 -27 133 56T37 274Q37 431 160 523T494 616H711V702Q711 753 678 779T580 805Q512 805 475 771T432 668H86Q95 839 213 923T563 1008Q832 1008 961 918T1090 641V227H1206V0H735V137ZM711 426H600Q508 426 455 392T401 301Q401 251 435 225T532 199Q608 199 656 260T711 426ZM287 1487H574L766 1118H612L287 1487Z"  />
<glyph unicode="&#xE1;" d="M735 137Q681 55 594 14T387 -27Q229 -27 133 56T37 274Q37 431 160 523T494 616H711V702Q711 753 678 779T580 805Q512 805 475 771T432 668H86Q95 839 213 923T563 1008Q832 1008 961 918T1090 641V227H1206V0H735V137ZM711 426H600Q508 426 455 392T401 301Q401 251 435 225T532 199Q608 199 656 260T711 426ZM897 1489L572 1118H418L610 1489H897Z"  />
<glyph unicode="&#xE2;" d="M735 137Q681 55 594 14T387 -27Q229 -27 133 56T37 274Q37 431 160 523T494 616H711V702Q711 753 678 779T580 805Q512 805 475 771T432 668H86Q95 839 213 923T563 1008Q832 1008 961 918T1090 641V227H1206V0H735V137ZM711 426H600Q508 426 455 392T401 301Q401 251 435 225T532 199Q608 199 656 260T711 426ZM270 1118L463 1487H719L911 1118H758L592 1317L424 1118H270Z"  />
<glyph unicode="&#xE3;" d="M735 137Q681 55 594 14T387 -27Q229 -27 133 56T37 274Q37 431 160 523T494 616H711V702Q711 753 678 779T580 805Q512 805 475 771T432 668H86Q95 839 213 923T563 1008Q832 1008 961 918T1090 641V227H1206V0H735V137ZM711 426H600Q508 426 455 392T401 301Q401 251 435 225T532 199Q608 199 656 260T711 426ZM924 1444Q894 1311 841 1250T705 1188Q686 1188 668 1191T629 1200L537 1227Q514 1233 497 1236T469 1239Q436 1239 415 1221T379 1161H260Q288 1287 340 1347T475 1407Q494 1407 517 1404T565 1393L660 1366Q672 1362 686 1360T717 1358Q750 1358 772 1379T805 1444H924Z"  />
<glyph unicode="&#xE4;" d="M735 137Q681 55 594 14T387 -27Q229 -27 133 56T37 274Q37 431 160 523T494 616H711V702Q711 753 678 779T580 805Q512 805 475 771T432 668H86Q95 839 213 923T563 1008Q832 1008 961 918T1090 641V227H1206V0H735V137ZM711 426H600Q508 426 455 392T401 301Q401 251 435 225T532 199Q608 199 656 260T711 426ZM285 1167V1438H535V1167H285ZM647 1167V1438H899V1167H647Z"  />
<glyph unicode="&#xE5;" d="M735 137Q681 55 594 14T387 -27Q229 -27 133 56T37 274Q37 431 160 523T494 616H711V702Q711 753 678 779T580 805Q512 805 475 771T432 668H86Q95 839 213 923T563 1008Q832 1008 961 918T1090 641V227H1206V0H735V137ZM711 426H600Q508 426 455 392T401 301Q401 251 435 225T532 199Q608 199 656 260T711 426ZM332 1348Q332 1461 410 1539T602 1618Q716 1618 795 1540T874 1348Q874 1234 795 1155T602 1075Q488 1075 410 1154T332 1348ZM487 1346Q487 1298 520 1266T602 1233Q650 1233 683 1265T717 1346Q717 1393 684 1426T602 1460Q554 1460 521 1427T487 1346Z"  />
<glyph unicode="&#xE6;" horiz-adv-x="1776" d="M692 430H584Q494 430 444 397T393 305Q393 256 425 231T518 205Q591 205 639 266T692 430ZM829 154Q752 56 653 9T428 -39Q250 -39 145 49T39 289Q39 436 160 527T482 621H692V711Q692 753 656 779T559 805Q498 805 463 770T422 668H86Q95 832 205 918T518 1004Q654 1004 742 965T887 840Q954 923 1039 963T1235 1004Q1458 1004 1586 868T1714 494Q1714 478 1714 460T1710 404L1057 403V397Q1057 315 1093 270T1194 225Q1234 225 1263 243T1317 301H1696Q1660 141 1531 51T1206 -39Q1076 -39 985 8T829 154ZM1057 602H1349Q1346 688 1309 733T1204 778Q1137 778 1101 735T1057 602Z"  />
<glyph unicode="&#xE7;" horiz-adv-x="1130" d="M776 592Q769 675 732 713T623 752Q538 752 495 685T451 485Q451 346 491 283T618 219Q687 219 725 255T772 364L1087 365Q1081 170 958 72T594 -27Q334 -27 196 111T57 510Q57 731 182 867T508 1004Q609 1004 684 966T801 858V981H1079V592H776ZM287 -438V-301Q367 -323 436 -334T558 -346Q601 -346 622 -329T644 -274Q644 -242 615 -227T525 -211Q504 -211 492 -211T470 -213L469 0H584V-84H603Q714 -84 773 -133T832 -276Q832 -376 766 -430T578 -485Q520 -485 448 -474T287 -438Z"  />
<glyph unicode="&#xE8;" horiz-adv-x="1141" d="M705 297H1055Q1032 141 915 58T600 -25Q348 -25 203 114T57 494Q57 726 199 866T575 1006Q815 1006 947 870T1079 487Q1079 462 1076 408L1075 401H428V395Q428 312 467 268T582 223Q622 223 653 242T705 297ZM428 594H720Q718 679 680 725T575 772Q509 772 473 728T428 594ZM266 1487H553L745 1118H591L266 1487Z"  />
<glyph unicode="&#xE9;" horiz-adv-x="1141" d="M705 297H1055Q1032 141 915 58T600 -25Q348 -25 203 114T57 494Q57 726 199 866T575 1006Q815 1006 947 870T1079 487Q1079 462 1076 408L1075 401H428V395Q428 312 467 268T582 223Q622 223 653 242T705 297ZM428 594H720Q718 679 680 725T575 772Q509 772 473 728T428 594ZM876 1489L551 1118H397L589 1489H876Z"  />
<glyph unicode="&#xEA;" horiz-adv-x="1141" d="M705 297H1055Q1032 141 915 58T600 -25Q348 -25 203 114T57 494Q57 726 199 866T575 1006Q815 1006 947 870T1079 487Q1079 462 1076 408L1075 401H428V395Q428 312 467 268T582 223Q622 223 653 242T705 297ZM428 594H720Q718 679 680 725T575 772Q509 772 473 728T428 594ZM249 1118L442 1487H698L890 1118H737L571 1317L403 1118H249Z"  />
<glyph unicode="&#xEB;" horiz-adv-x="1141" d="M705 297H1055Q1032 141 915 58T600 -25Q348 -25 203 114T57 494Q57 726 199 866T575 1006Q815 1006 947 870T1079 487Q1079 462 1076 408L1075 401H428V395Q428 312 467 268T582 223Q622 223 653 242T705 297ZM428 594H720Q718 679 680 725T575 772Q509 772 473 728T428 594ZM264 1167V1438H514V1167H264ZM626 1167V1438H878V1167H626Z"  />
<glyph unicode="&#xEC;" horiz-adv-x="717" d="M178 227V758H66V981H557V227H666V0H72V227H178ZM54 1487H341L533 1118H379L54 1487Z"  />
<glyph unicode="&#xED;" horiz-adv-x="717" d="M178 227V758H66V981H557V227H666V0H72V227H178ZM664 1489L339 1118H185L377 1489H664Z"  />
<glyph unicode="&#xEE;" horiz-adv-x="717" d="M178 227V758H66V981H557V227H666V0H72V227H178ZM37 1118L230 1487H486L678 1118H525L359 1317L191 1118H37Z"  />
<glyph unicode="&#xEF;" horiz-adv-x="717" d="M178 227V758H66V981H557V227H666V0H72V227H178ZM52 1167V1438H302V1167H52ZM414 1167V1438H666V1167H414Z"  />
<glyph unicode="&#xF0;" horiz-adv-x="1118" d="M412 442Q412 317 448 256T559 195Q634 195 670 256T707 442Q707 568 670 630T559 692Q485 692 449 630T412 442ZM696 887Q681 921 652 955T575 1030L299 885L242 989L463 1108Q417 1128 369 1143T268 1169L322 1346Q412 1327 497 1297T666 1223L858 1325L913 1208L774 1133Q915 989 988 813T1061 438Q1061 229 924 102T559 -25Q332 -25 195 102T57 438Q57 647 194 774T559 901Q602 901 635 898T696 887Z"  />
<glyph unicode="&#xF1;" horiz-adv-x="1360" d="M57 0V227H172V758H57V981H514V791Q566 902 654 954T877 1006Q1048 1006 1131 920T1214 657V227H1327V0H739V227H836V575Q836 669 805 709T702 750Q626 750 589 704T551 563V227H645V0H57ZM1012 1444Q982 1311 929 1250T793 1188Q774 1188 756 1191T717 1200L625 1227Q602 1233 585 1236T557 1239Q524 1239 503 1221T467 1161H348Q376 1287 428 1347T563 1407Q582 1407 605 1404T653 1393L748 1366Q760 1362 774 1360T805 1358Q838 1358 860 1379T893 1444H1012Z"  />
<glyph unicode="&#xF2;" horiz-adv-x="1231" d="M57 489Q57 722 209 864T614 1006Q867 1006 1019 864T1171 489Q1171 257 1019 116T614 -25Q362 -25 210 116T57 489ZM453 496Q453 354 492 286T614 217Q697 217 736 285T776 496Q776 637 737 704T614 772Q532 772 493 705T453 496ZM311 1487H598L790 1118H636L311 1487Z"  />
<glyph unicode="&#xF3;" horiz-adv-x="1231" d="M57 489Q57 722 209 864T614 1006Q867 1006 1019 864T1171 489Q1171 257 1019 116T614 -25Q362 -25 210 116T57 489ZM453 496Q453 354 492 286T614 217Q697 217 736 285T776 496Q776 637 737 704T614 772Q532 772 493 705T453 496ZM921 1489L596 1118H442L634 1489H921Z"  />
<glyph unicode="&#xF4;" horiz-adv-x="1231" d="M57 489Q57 722 209 864T614 1006Q867 1006 1019 864T1171 489Q1171 257 1019 116T614 -25Q362 -25 210 116T57 489ZM453 496Q453 354 492 286T614 217Q697 217 736 285T776 496Q776 637 737 704T614 772Q532 772 493 705T453 496ZM294 1118L487 1487H743L935 1118H782L616 1317L448 1118H294Z"  />
<glyph unicode="&#xF5;" horiz-adv-x="1231" d="M57 489Q57 722 209 864T614 1006Q867 1006 1019 864T1171 489Q1171 257 1019 116T614 -25Q362 -25 210 116T57 489ZM453 496Q453 354 492 286T614 217Q697 217 736 285T776 496Q776 637 737 704T614 772Q532 772 493 705T453 496ZM948 1444Q918 1311 865 1250T729 1188Q710 1188 692 1191T653 1200L561 1227Q538 1233 521 1236T493 1239Q460 1239 439 1221T403 1161H284Q312 1287 364 1347T499 1407Q518 1407 541 1404T589 1393L684 1366Q696 1362 710 1360T741 1358Q774 1358 796 1379T829 1444H948Z"  />
<glyph unicode="&#xF6;" horiz-adv-x="1231" d="M57 489Q57 722 209 864T614 1006Q867 1006 1019 864T1171 489Q1171 257 1019 116T614 -25Q362 -25 210 116T57 489ZM453 496Q453 354 492 286T614 217Q697 217 736 285T776 496Q776 637 737 704T614 772Q532 772 493 705T453 496ZM309 1167V1438H559V1167H309ZM671 1167V1438H923V1167H671Z"  />
<glyph unicode="&#xF7;" horiz-adv-x="1706" d="M854 1182Q921 1182 969 1133T1018 1016Q1018 948 970 900T852 852Q783 852 736 900T688 1016Q688 1084 737 1133T854 1182ZM254 727H1452V496H254V727ZM854 371Q922 371 970 323T1018 205Q1018 137 971 89T854 41Q785 41 737 89T688 205Q688 273 737 322T854 371Z"  />
<glyph unicode="&#xF8;" horiz-adv-x="1231" d="M754 715Q729 754 695 772T614 791Q524 791 476 718T428 508Q428 484 429 459T434 406L754 715ZM473 276Q496 236 529 215T604 193Q698 193 749 264T801 467Q801 499 799 527T793 580L473 276ZM133 -72L31 41L164 170Q110 244 84 322T57 489Q57 722 209 864T614 1006Q716 1006 796 985T946 918L1079 1042L1182 934L1057 813Q1116 736 1145 656T1174 487Q1174 258 1021 117T618 -25Q519 -25 437 -3T279 68L133 -72Z"  />
<glyph unicode="&#xF9;" horiz-adv-x="1356" d="M1190 981V223H1303V0H846V190Q793 79 706 27T483 -25Q312 -25 230 60T147 324V754H33V981H526V406Q526 310 558 272T668 233Q739 233 775 279T811 418V754H715V981H1190ZM334 1487H621L813 1118H659L334 1487Z"  />
<glyph unicode="&#xFA;" horiz-adv-x="1356" d="M1190 981V223H1303V0H846V190Q793 79 706 27T483 -25Q312 -25 230 60T147 324V754H33V981H526V406Q526 310 558 272T668 233Q739 233 775 279T811 418V754H715V981H1190ZM944 1489L619 1118H465L657 1489H944Z"  />
<glyph unicode="&#xFB;" horiz-adv-x="1356" d="M1190 981V223H1303V0H846V190Q793 79 706 27T483 -25Q312 -25 230 60T147 324V754H33V981H526V406Q526 310 558 272T668 233Q739 233 775 279T811 418V754H715V981H1190ZM317 1118L510 1487H766L958 1118H805L639 1317L471 1118H317Z"  />
<glyph unicode="&#xFC;" horiz-adv-x="1356" d="M1190 981V223H1303V0H846V190Q793 79 706 27T483 -25Q312 -25 230 60T147 324V754H33V981H526V406Q526 310 558 272T668 233Q739 233 775 279T811 418V754H715V981H1190ZM332 1167V1438H582V1167H332ZM694 1167V1438H946V1167H694Z"  />
<glyph unicode="&#xFD;" horiz-adv-x="1208" d="M14 758V981H573V758H481L637 328L795 758H690V981H1194V758H1126L682 -215Q637 -310 575 -346T397 -383Q350 -383 300 -378T195 -362V-113Q249 -122 278 -125T326 -129Q381 -129 410 -101T446 -16L84 758H14ZM909 1489L584 1118H430L622 1489H909Z"  />
<glyph unicode="&#xFE;" horiz-adv-x="1358" d="M172 1124H57V1346H551V856Q603 930 684 968T872 1006Q1086 1006 1193 871T1300 469Q1300 235 1190 105T883 -25Q768 -25 689 14T551 139V-137H664V-360H53V-137H172V1124ZM907 485Q907 612 860 676T721 741Q628 741 580 677T532 485Q532 360 580 296T721 231Q814 231 860 295T907 485Z"  />
<glyph unicode="&#xFF;" horiz-adv-x="1208" d="M14 758V981H573V758H481L637 328L795 758H690V981H1194V758H1126L682 -215Q637 -310 575 -346T397 -383Q350 -383 300 -378T195 -362V-113Q249 -122 278 -125T326 -129Q381 -129 410 -101T446 -16L84 758H14ZM297 1167V1438H547V1167H297ZM659 1167V1438H911V1167H659Z"  />
<glyph unicode="&#x131;" horiz-adv-x="717" d="M178 227V758H66V981H557V227H666V0H72V227H178Z"  />
<glyph unicode="&#x152;" horiz-adv-x="2062" d="M1972 1346V932H1698V1114H1280V795H1401V940H1628V436H1401V578H1280V242H1690V442H1970V0H1047Q1031 -1 1004 -2Q871 -8 819 -8Q443 -8 259 162T74 680Q74 1003 257 1186T764 1370Q842 1370 923 1364T1094 1346H1972ZM930 232V1103Q898 1111 868 1114T805 1118Q637 1118 547 997T457 647Q457 440 548 331T815 221Q838 221 866 223T930 232Z"  />
<glyph unicode="&#x153;" horiz-adv-x="1806" d="M424 496Q424 355 464 287T588 219Q671 219 711 287T752 496Q752 638 711 709T588 780Q506 780 465 709T424 496ZM930 836Q1007 920 1096 960T1292 1001Q1503 1001 1624 864T1745 485Q1745 472 1744 454T1741 402L1102 401V395Q1102 313 1138 266T1237 219Q1276 219 1305 238T1356 295H1722Q1698 138 1592 57T1303 -25Q1173 -25 1081 16T928 143Q858 57 772 16T569 -25Q338 -25 198 117T57 494Q57 726 195 863T567 1001Q692 1001 778 962T930 836ZM1102 602H1394Q1392 686 1353 733T1247 780Q1182 780 1146 736T1102 602Z"  />
<glyph unicode="&#x160;" horiz-adv-x="1223" d="M344 123V0H43V463H369V451Q369 332 425 274T596 215Q684 215 737 253T791 352Q791 434 605 503L592 508Q534 529 436 565Q246 633 207 659Q117 720 80 791T43 973Q43 1161 169 1267T518 1374Q636 1374 718 1337T846 1225V1346H1135V930H834V944Q834 1042 776 1092T604 1143Q521 1143 472 1107T422 1012Q422 929 656 854Q684 845 700 840Q832 796 899 769T999 721Q1096 657 1137 582T1178 391Q1178 195 1049 83T690 -29Q568 -29 485 7T344 123ZM290 1860H444L612 1659L778 1860H931L739 1489H483L290 1860Z"  />
<glyph unicode="&#x161;" horiz-adv-x="979" d="M317 102V0H53V350H338Q339 263 375 219T481 174Q530 174 563 201T596 266Q596 344 415 384Q389 390 375 393Q171 438 105 502T39 692Q39 836 131 921T379 1006Q475 1006 544 972T647 874V981H899V655H629Q621 732 584 769T477 807Q435 807 408 786T381 733Q381 667 539 627Q567 620 582 616Q804 560 871 493T938 297Q938 149 844 62T588 -25Q495 -25 429 6T317 102ZM168 1489H322L490 1288L656 1489H809L617 1118H361L168 1489Z"  />
<glyph unicode="&#x178;" horiz-adv-x="1432" d="M14 1114V1346H680V1114H528L743 752L965 1114H813V1346H1417V1114H1331L905 483V242H1079V0H344V242H518V481L98 1114H14ZM410 1538V1809H660V1538H410ZM772 1538V1809H1024V1538H772Z"  />
<glyph unicode="&#x17D;" horiz-adv-x="1364" d="M1282 0H63V295L807 1114H391V893H90V1346H1266V1063L522 242H979V469H1282V0ZM360 1860H514L682 1659L848 1860H1001L809 1489H553L360 1860Z"  />
<glyph unicode="&#x17E;" horiz-adv-x="1018" d="M985 0H39V264L567 758H330V668H57V981H979V721L449 227H711V334H985V0ZM189 1489H343L511 1288L677 1489H830L638 1118H382L189 1489Z"  />
<glyph unicode="&#x192;" horiz-adv-x="1202" d="M262 51L381 664H213L254 905H444L489 1135Q514 1258 597 1314T842 1370Q893 1370 955 1365T1087 1348L1040 1094Q1010 1102 989 1106T954 1110Q911 1110 887 1087T850 1012L823 905H1010L961 664H776L616 -84Q589 -216 511 -271T272 -326Q233 -326 176 -319T20 -295L70 -51Q90 -58 110 -61T147 -66Q189 -66 220 -34T262 51Z"  />
<glyph unicode="&#x2C6;" horiz-adv-x="1024" d="M190 1118L383 1487H639L831 1118H678L512 1317L344 1118H190Z"  />
<glyph unicode="&#x2C7;" horiz-adv-x="1024" d="M190 1489H344L512 1288L678 1489H831L639 1118H383L190 1489Z"  />
<glyph unicode="&#x2DC;" horiz-adv-x="1024" d="M844 1444Q814 1311 761 1250T625 1188Q606 1188 588 1191T549 1200L457 1227Q434 1233 417 1236T389 1239Q356 1239 335 1221T299 1161H180Q208 1287 260 1347T395 1407Q414 1407 437 1404T485 1393L580 1366Q592 1362 606 1360T637 1358Q670 1358 692 1379T725 1444H844Z"  />
<glyph unicode="&#x2013;" horiz-adv-x="1024" d="M1024 401H0V604H1024V401Z"  />
<glyph unicode="&#x2014;" horiz-adv-x="2048" d="M2048 401H0V604H2048V401Z"  />
<glyph unicode="&#x2018;" horiz-adv-x="602" d="M344 1042H465V702H129V1063L250 1346H471L344 1042Z"  />
<glyph unicode="&#x2019;" horiz-adv-x="602" d="M256 1006H135V1346H471V985L352 702H129L256 1006Z"  />
<glyph unicode="&#x201A;" horiz-adv-x="602" d="M258 0H139V342H475V-18L354 -303H133L258 0Z"  />
<glyph unicode="&#x201C;" horiz-adv-x="1122" d="M322 1042H442V702H106V1063L227 1346H449L322 1042ZM893 1042H1012V702H676V1063L797 1346H1018L893 1042Z"  />
<glyph unicode="&#x201D;" horiz-adv-x="1122" d="M227 1006H106V1346H442V985L322 702H100L227 1006ZM797 1006H676V1346H1012V985L893 702H670L797 1006Z"  />
<glyph unicode="&#x201E;" horiz-adv-x="1122" d="M236 0H115V342H451V-18L330 -303H109L236 0ZM805 0H684V342H1020V-18L901 -303H678L805 0Z"  />
<glyph unicode="&#x2020;" horiz-adv-x="1024" d="M338 -248V668H20V952H338V1341H684V952H997V668H684V-248H338Z"  />
<glyph unicode="&#x2021;" horiz-adv-x="1024" d="M680 360H983V92H680V-248H348V92H41V360H348V735H41V1006H348V1346H680V1006H983V735H680V360Z"  />
<glyph unicode="&#x2022;" horiz-adv-x="1208" d="M307 762Q307 885 394 971T604 1057Q726 1057 812 971T899 762Q899 640 812 553T602 465Q479 465 393 552T307 762Z"  />
<glyph unicode="&#x2026;" horiz-adv-x="2048" d="M510 0H174V338H510V0ZM1192 0H856V338H1192V0ZM1876 0H1540V338H1876V0Z"  />
<glyph unicode="&#x2030;" horiz-adv-x="2580" d="M516 -29H309L1292 1374H1499L516 -29ZM145 1012Q145 1189 231 1283T477 1378Q631 1378 719 1284T807 1026Q807 854 723 764T477 674Q318 674 232 762T145 1012ZM369 1028Q369 928 395 880T475 831Q529 831 555 879T582 1028Q582 1127 555 1177T475 1227Q422 1227 396 1177T369 1028ZM1008 324Q1008 502 1092 596T1337 690Q1496 690 1581 596T1667 326Q1667 162 1582 74T1337 -14Q1179 -14 1094 73T1008 324ZM1233 344Q1233 244 1259 196T1339 147Q1394 147 1420 195T1446 344Q1446 443 1420 493T1339 543Q1286 543 1260 493T1233 344ZM1782 324Q1782 501 1867 595T2114 690Q2272 690 2356 596T2441 326Q2441 161 2357 74T2114 -14Q1955 -14 1869 74T1782 324ZM2007 344Q2007 244 2033 196T2114 147Q2168 147 2194 195T2220 344Q2220 443 2194 493T2114 543Q2060 543 2034 493T2007 344Z"  />
<glyph unicode="&#x2039;" horiz-adv-x="569" d="M502 90H264L90 506L264 913H502L328 506L502 90Z"  />
<glyph unicode="&#x203A;" horiz-adv-x="569" d="M53 911H293L467 496L293 88H53L227 496L53 911Z"  />
<glyph unicode="&#x20AC;" horiz-adv-x="657" d="M31 452H97Q108 515 132 566T193 653T274 709T374 729Q425 729 466 714T538 671T588 606T614 523H520Q508 581 472 614T373 647Q298 647 255 595T197 452H400V395H191Q190 385 190 375T190 355Q190 344 190 334T191 314H400V257H198Q214 163 261 115T381 67Q450 67 488 112T534 226H624Q622 176 605 132T556 56T480 4T382 -15Q328 -15 281 3T197 56T134 141T97 257H31V314H90Q89 324 89 334T89 355Q89 365 89 375T90 395H31V452Z"  />
<glyph unicode="&#x2122;" horiz-adv-x="1706" d="M188 1464H690V1337H526V913H352V1337H188V1464ZM797 1464H1020L1133 1161L1247 1464H1468V913H1313V1303L1167 913H1102L952 1303V913H797V1464Z"  />

</font>
</defs>
</svg>
